%TF.GenerationSoftware,KiCad,Pcbnew,10.0.2*%
%TF.CreationDate,2026-06-12T13:26:30-03:00*%
%TF.ProjectId,water-quality-analyzer-pcb,77617465-722d-4717-9561-6c6974792d61,v1.0.0*%
%TF.SameCoordinates,Original*%
%TF.FileFunction,Component,L1,Top*%
%TF.FilePolarity,Positive*%
%FSLAX46Y46*%
G04 Gerber Fmt 4.6, Leading zero omitted, Abs format (unit mm)*
G04 Created by KiCad (PCBNEW 10.0.2) date 2026-06-12 13:26:30*
%MOMM*%
%LPD*%
G01*
G04 APERTURE LIST*
%TA.AperFunction,ComponentMain*%
%ADD10C,0.300000*%
%TD*%
%TA.AperFunction,ComponentOutline,Courtyard*%
%ADD11C,0.100000*%
%TD*%
%TA.AperFunction,ComponentPin*%
%ADD12P,0.360000X4X0.000000*%
%TD*%
%TA.AperFunction,ComponentPin*%
%ADD13C,0.100000*%
%TD*%
G04 APERTURE END LIST*
D10*
%TO.C,Q1*%
%TO.CFtp,SOT95P280X145-6N*%
%TO.CVal,FS8205*%
%TO.CLbN,FS8205*%
%TO.CMnt,SMD*%
%TO.CRot,-90*%
X58500000Y-97500000D03*
D11*
X60195000Y-95395000D02*
X60195000Y-99605000D01*
X56805000Y-99605000D01*
X56805000Y-95395000D01*
X60195000Y-95395000D01*
D12*
%TO.P,Q1,1*%
X59450000Y-96245000D03*
D13*
%TO.P,Q1,2*%
X58500000Y-96245000D03*
%TO.P,Q1,3*%
X57550000Y-96245000D03*
%TO.P,Q1,6*%
X59450000Y-98755000D03*
%TO.P,Q1,5*%
X58500000Y-98755000D03*
%TO.P,Q1,4*%
X57550000Y-98755000D03*
%TD*%
D10*
%TO.C,R1*%
%TO.CFtp,R_0805_2012Metric*%
%TO.CVal,100Ω*%
%TO.CLbN,Resistor_SMD*%
%TO.CMnt,SMD*%
%TO.CRot,-90*%
X61550000Y-85000000D03*
D11*
X62495000Y-83325000D02*
X62495000Y-86675000D01*
X60605000Y-86675000D01*
X60605000Y-83325000D01*
X62495000Y-83325000D01*
D12*
%TO.P,R1,1*%
X61550000Y-84087500D03*
D13*
%TO.P,R1,2*%
X61550000Y-85912500D03*
%TD*%
D10*
%TO.C,J4*%
%TO.CFtp,PinHeader_1x03_P2.54mm_Vertical*%
%TO.CVal,TDS*%
%TO.CLbN,Connector_PinHeader_2.54mm*%
%TO.CMnt,TH*%
%TO.CRot,0*%
X102000000Y-84920000D03*
D11*
X103765000Y-83155000D02*
X103765000Y-91765000D01*
X100235000Y-91765000D01*
X100235000Y-83155000D01*
X103765000Y-83155000D01*
D12*
%TO.P,J4,1,Pin_1_1*%
X102000000Y-84920000D03*
D13*
%TO.P,J4,2,Pin_2_2*%
X102000000Y-87460000D03*
%TO.P,J4,3,Pin_3_3*%
X102000000Y-90000000D03*
%TD*%
D10*
%TO.C,L1*%
%TO.CFtp,L_1210_3225Metric*%
%TO.CVal,1uH*%
%TO.CLbN,Inductor_SMD*%
%TO.CMnt,SMD*%
%TO.CRot,180*%
X57500000Y-111500000D03*
D11*
X59775000Y-109925000D02*
X59775000Y-113075000D01*
X55225000Y-113075000D01*
X55225000Y-109925000D01*
X59775000Y-109925000D01*
D12*
%TO.P,L1,1,1_1*%
X58900000Y-111500000D03*
D13*
%TO.P,L1,2,2_2*%
X56100000Y-111500000D03*
%TD*%
D10*
%TO.C,R6*%
%TO.CFtp,R_0805_2012Metric*%
%TO.CVal,732kΩ*%
%TO.CLbN,Resistor_SMD*%
%TO.CMnt,SMD*%
%TO.CRot,180*%
X55500000Y-104500000D03*
D11*
X57175000Y-103555000D02*
X57175000Y-105445000D01*
X53825000Y-105445000D01*
X53825000Y-103555000D01*
X57175000Y-103555000D01*
D12*
%TO.P,R6,1*%
X56412500Y-104500000D03*
D13*
%TO.P,R6,2*%
X54587500Y-104500000D03*
%TD*%
D10*
%TO.C,J2*%
%TO.CFtp,PinSocket_1x19_P2.54mm_Vertical*%
%TO.CVal,ESP32_RIGHT_SIDE*%
%TO.CLbN,Connector_PinSocket_2.54mm*%
%TO.CMnt,TH*%
%TO.CRot,180*%
X92000000Y-118200000D03*
D11*
X93765000Y-70715000D02*
X93765000Y-119965000D01*
X90235000Y-119965000D01*
X90235000Y-70715000D01*
X93765000Y-70715000D01*
D12*
%TO.P,J2,1,Pin_1_1*%
X92000000Y-118200000D03*
D13*
%TO.P,J2,2,Pin_2_2*%
X92000000Y-115660000D03*
%TO.P,J2,3,Pin_3_3*%
X92000000Y-113120000D03*
%TO.P,J2,4,Pin_4_4*%
X92000000Y-110580000D03*
%TO.P,J2,5,Pin_5_5*%
X92000000Y-108040000D03*
%TO.P,J2,6,Pin_6_6*%
X92000000Y-105500000D03*
%TO.P,J2,7,Pin_7_7*%
X92000000Y-102960000D03*
%TO.P,J2,8,Pin_8_8*%
X92000000Y-100420000D03*
%TO.P,J2,9,Pin_9_9*%
X92000000Y-97880000D03*
%TO.P,J2,10,Pin_10_10*%
X92000000Y-95340000D03*
%TO.P,J2,11,Pin_11_11*%
X92000000Y-92800000D03*
%TO.P,J2,12,Pin_12_12*%
X92000000Y-90260000D03*
%TO.P,J2,13,Pin_13_13*%
X92000000Y-87720000D03*
%TO.P,J2,14,Pin_14_14*%
X92000000Y-85180000D03*
%TO.P,J2,15,Pin_15_15*%
X92000000Y-82640000D03*
%TO.P,J2,16,Pin_16_16*%
X92000000Y-80100000D03*
%TO.P,J2,17,Pin_17_17*%
X92000000Y-77560000D03*
%TO.P,J2,18,Pin_18_18*%
X92000000Y-75020000D03*
%TO.P,J2,19,Pin_19_19*%
X92000000Y-72480000D03*
%TD*%
D10*
%TO.C,U2*%
%TO.CFtp,SOT50P160X60-6N*%
%TO.CVal,TPS61023DRLT*%
%TO.CLbN,TPS61023DRLT*%
%TO.CMnt,SMD*%
%TO.CRot,0*%
X57265000Y-108000000D03*
D11*
X58575000Y-106955000D02*
X58575000Y-109045000D01*
X55955000Y-109045000D01*
X55955000Y-106955000D01*
X58575000Y-106955000D01*
D12*
%TO.P,U2,1,FB_1*%
X56530000Y-107500000D03*
D13*
%TO.P,U2,2,EN_2*%
X56530000Y-108000000D03*
%TO.P,U2,3,VIN_3*%
X56530000Y-108500000D03*
%TO.P,U2,4,GND_4*%
X58000000Y-108500000D03*
%TO.P,U2,5,SW_5*%
X58000000Y-108000000D03*
%TO.P,U2,6,VOUT_6*%
X58000000Y-107500000D03*
%TD*%
D10*
%TO.C,C2*%
%TO.CFtp,C_0805_2012Metric*%
%TO.CVal,10uF*%
%TO.CLbN,Capacitor_SMD*%
%TO.CMnt,SMD*%
%TO.CRot,-90*%
X53500000Y-111500000D03*
D11*
X54475000Y-109805000D02*
X54475000Y-113195000D01*
X52525000Y-113195000D01*
X52525000Y-109805000D01*
X54475000Y-109805000D01*
D12*
%TO.P,C2,1*%
X53500000Y-110550000D03*
D13*
%TO.P,C2,2*%
X53500000Y-112450000D03*
%TD*%
D10*
%TO.C,C3*%
%TO.CFtp,C_1206_3216Metric*%
%TO.CVal,22uF*%
%TO.CLbN,Capacitor_SMD*%
%TO.CMnt,SMD*%
%TO.CRot,0*%
X60500000Y-101500000D03*
D11*
X62795000Y-100355000D02*
X62795000Y-102645000D01*
X58205000Y-102645000D01*
X58205000Y-100355000D01*
X62795000Y-100355000D01*
D12*
%TO.P,C3,1*%
X59025000Y-101500000D03*
D13*
%TO.P,C3,2*%
X61975000Y-101500000D03*
%TD*%
D10*
%TO.C,J5*%
%TO.CFtp,PinSocket_1x03_P2.54mm_Vertical*%
%TO.CVal,TURBIDITY*%
%TO.CLbN,Connector_PinSocket_2.54mm*%
%TO.CMnt,TH*%
%TO.CRot,0*%
X102000000Y-73460000D03*
D11*
X103765000Y-71695000D02*
X103765000Y-80305000D01*
X100235000Y-80305000D01*
X100235000Y-71695000D01*
X103765000Y-71695000D01*
D12*
%TO.P,J5,1,Pin_1_1*%
X102000000Y-73460000D03*
D13*
%TO.P,J5,2,Pin_2_2*%
X102000000Y-76000000D03*
%TO.P,J5,3,Pin_3_3*%
X102000000Y-78540000D03*
%TD*%
D10*
%TO.C,J3*%
%TO.CFtp,CONN-SMD_4P-P2.00_ZX-HY2.0-4PWT*%
%TO.CVal,PH*%
%TO.CLbN,EasyEDA_Lib*%
%TO.CMnt,Other*%
%TO.CRot,90*%
X105830000Y-107040000D03*
D11*
X111782500Y-100769500D02*
X111782500Y-113340433D01*
X100235000Y-113340433D01*
X100235000Y-100769500D01*
X111782500Y-100769500D01*
D12*
%TO.P,J3,1,Pin_1_1*%
X101980000Y-110040000D03*
D13*
%TO.P,J3,2,Pin_2_2*%
X101980000Y-108040000D03*
%TO.P,J3,3,Pin_3_3*%
X101980000Y-106040000D03*
%TO.P,J3,4,Pin_4_4*%
X101980000Y-104040000D03*
%TO.P,J3,5*%
X109680000Y-101840000D03*
%TO.P,J3,6*%
X109680000Y-112240000D03*
%TD*%
D10*
%TO.C,SW1*%
%TO.CFtp,SW_Slide_SPDT_Angled_CK_OS102011MA1Q*%
%TO.CVal,on/off switch*%
%TO.CLbN,Button_Switch_THT*%
%TO.CMnt,TH*%
%TO.CRot,-90*%
X52550000Y-88500000D03*
D11*
X55245000Y-84805000D02*
X55245000Y-96195000D01*
X45855000Y-96195000D01*
X45855000Y-84805000D01*
X55245000Y-84805000D01*
D12*
%TO.P,SW1,1,C_1*%
X52550000Y-88500000D03*
D13*
%TO.P,SW1,*%
X52550000Y-86400000D03*
X52550000Y-94600000D03*
%TO.P,SW1,2,B_2*%
X52550000Y-90500000D03*
%TO.P,SW1,3,A_3*%
X52550000Y-92500000D03*
%TD*%
D10*
%TO.C,D1*%
%TO.CFtp,LED_0805_2012Metric*%
%TO.CVal,pwr led*%
%TO.CLbN,LED_SMD*%
%TO.CMnt,SMD*%
%TO.CRot,180*%
X52550000Y-99000000D03*
D11*
X54225000Y-98055000D02*
X54225000Y-99945000D01*
X50875000Y-99945000D01*
X50875000Y-98055000D01*
X54225000Y-98055000D01*
D12*
%TO.P,D1,1,K_1*%
X53487500Y-99000000D03*
D13*
%TO.P,D1,2,A_2*%
X51612500Y-99000000D03*
%TD*%
D10*
%TO.C,BT1*%
%TO.CFtp,JST_PH_S2B-PH-K_1x02_P2.00mm_Horizontal*%
%TO.CVal,Battery*%
%TO.CLbN,Connector_JST*%
%TO.CMnt,TH*%
%TO.CRot,-90*%
X56500000Y-79000000D03*
D11*
X58345000Y-76555000D02*
X58345000Y-83445000D01*
X49755000Y-83445000D01*
X49755000Y-76555000D01*
X58345000Y-76555000D01*
D12*
%TO.P,BT1,1,+_1*%
X56500000Y-79000000D03*
D13*
%TO.P,BT1,2,-_2*%
X56500000Y-81000000D03*
%TD*%
D10*
%TO.C,U1*%
%TO.CFtp,SOT-23-6*%
%TO.CVal,DW01A*%
%TO.CLbN,Package_TO_SOT_SMD*%
%TO.CMnt,SMD*%
%TO.CRot,90*%
X62600000Y-89137500D03*
D11*
X64095000Y-87092500D02*
X64095000Y-88092500D01*
X64295000Y-88092500D01*
X64295000Y-90182500D01*
X64095000Y-90182500D01*
X64095000Y-91182500D01*
X61105000Y-91182500D01*
X61105000Y-90182500D01*
X60905000Y-90182500D01*
X60905000Y-88092500D01*
X61105000Y-88092500D01*
X61105000Y-87092500D01*
X64095000Y-87092500D01*
D12*
%TO.P,U1,1,OD_1*%
X61650000Y-90275000D03*
D13*
%TO.P,U1,2,CS_2*%
X62600000Y-90275000D03*
%TO.P,U1,3,OC_3*%
X63550000Y-90275000D03*
%TO.P,U1,4,TD_4*%
X63550000Y-88000000D03*
%TO.P,U1,5,VCC_5*%
X62600000Y-88000000D03*
%TO.P,U1,6,GND_6*%
X61650000Y-88000000D03*
%TD*%
D10*
%TO.C,R4*%
%TO.CFtp,R_0805_2012Metric*%
%TO.CVal,47kΩ*%
%TO.CLbN,Resistor_SMD*%
%TO.CMnt,SMD*%
%TO.CRot,0*%
X101910000Y-98540000D03*
D11*
X103585000Y-97595000D02*
X103585000Y-99485000D01*
X100235000Y-99485000D01*
X100235000Y-97595000D01*
X103585000Y-97595000D01*
D12*
%TO.P,R4,1*%
X100997500Y-98540000D03*
D13*
%TO.P,R4,2*%
X102822500Y-98540000D03*
%TD*%
D10*
%TO.C,R3*%
%TO.CFtp,R_0805_2012Metric*%
%TO.CVal,100kΩ*%
%TO.CLbN,Resistor_SMD*%
%TO.CMnt,SMD*%
%TO.CRot,90*%
X64050000Y-85000000D03*
D11*
X64995000Y-83325000D02*
X64995000Y-86675000D01*
X63105000Y-86675000D01*
X63105000Y-83325000D01*
X64995000Y-83325000D01*
D12*
%TO.P,R3,1*%
X64050000Y-85912500D03*
D13*
%TO.P,R3,2*%
X64050000Y-84087500D03*
%TD*%
D10*
%TO.C,R7*%
%TO.CFtp,R_0805_2012Metric*%
%TO.CVal,100kΩ*%
%TO.CLbN,Resistor_SMD*%
%TO.CMnt,SMD*%
%TO.CRot,180*%
X53087500Y-107000000D03*
D11*
X54762500Y-106055000D02*
X54762500Y-107945000D01*
X51412500Y-107945000D01*
X51412500Y-106055000D01*
X54762500Y-106055000D01*
D12*
%TO.P,R7,1*%
X54000000Y-107000000D03*
D13*
%TO.P,R7,2*%
X52175000Y-107000000D03*
%TD*%
D10*
%TO.C,J1*%
%TO.CFtp,PinSocket_1x19_P2.54mm_Vertical*%
%TO.CVal,ESP32_LEFT_SIDE*%
%TO.CLbN,Connector_PinSocket_2.54mm*%
%TO.CMnt,TH*%
%TO.CRot,180*%
X68295000Y-118200000D03*
D11*
X70060000Y-70715000D02*
X70060000Y-119965000D01*
X66530000Y-119965000D01*
X66530000Y-70715000D01*
X70060000Y-70715000D01*
D12*
%TO.P,J1,1,Pin_1_1*%
X68295000Y-118200000D03*
D13*
%TO.P,J1,2,Pin_2_2*%
X68295000Y-115660000D03*
%TO.P,J1,3,Pin_3_3*%
X68295000Y-113120000D03*
%TO.P,J1,4,Pin_4_4*%
X68295000Y-110580000D03*
%TO.P,J1,5,Pin_5_5*%
X68295000Y-108040000D03*
%TO.P,J1,6,Pin_6_6*%
X68295000Y-105500000D03*
%TO.P,J1,7,Pin_7_7*%
X68295000Y-102960000D03*
%TO.P,J1,8,Pin_8_8*%
X68295000Y-100420000D03*
%TO.P,J1,9,Pin_9_9*%
X68295000Y-97880000D03*
%TO.P,J1,10,Pin_10_10*%
X68295000Y-95340000D03*
%TO.P,J1,11,Pin_11_11*%
X68295000Y-92800000D03*
%TO.P,J1,12,Pin_12_12*%
X68295000Y-90260000D03*
%TO.P,J1,13,Pin_13_13*%
X68295000Y-87720000D03*
%TO.P,J1,14,Pin_14_14*%
X68295000Y-85180000D03*
%TO.P,J1,15,Pin_15_15*%
X68295000Y-82640000D03*
%TO.P,J1,16,Pin_16_16*%
X68295000Y-80100000D03*
%TO.P,J1,17,Pin_17_17*%
X68295000Y-77560000D03*
%TO.P,J1,18,Pin_18_18*%
X68295000Y-75020000D03*
%TO.P,J1,19,Pin_19_19*%
X68295000Y-72480000D03*
%TD*%
D10*
%TO.C,C1*%
%TO.CFtp,C_0805_2012Metric*%
%TO.CVal,100nF*%
%TO.CLbN,Capacitor_SMD*%
%TO.CMnt,SMD*%
%TO.CRot,-90*%
X58550000Y-93412500D03*
D11*
X59525000Y-91717500D02*
X59525000Y-95107500D01*
X57575000Y-95107500D01*
X57575000Y-91717500D01*
X59525000Y-91717500D01*
D12*
%TO.P,C1,1*%
X58550000Y-92462500D03*
D13*
%TO.P,C1,2*%
X58550000Y-94362500D03*
%TD*%
D10*
%TO.C,C4*%
%TO.CFtp,C_1206_3216Metric*%
%TO.CVal,22uF*%
%TO.CLbN,Capacitor_SMD*%
%TO.CMnt,SMD*%
%TO.CRot,0*%
X60500000Y-104850000D03*
D11*
X62795000Y-103705000D02*
X62795000Y-105995000D01*
X58205000Y-105995000D01*
X58205000Y-103705000D01*
X62795000Y-103705000D01*
D12*
%TO.P,C4,1*%
X59025000Y-104850000D03*
D13*
%TO.P,C4,2*%
X61975000Y-104850000D03*
%TD*%
D10*
%TO.C,R5*%
%TO.CFtp,R_0805_2012Metric*%
%TO.CVal,75kΩ*%
%TO.CLbN,Resistor_SMD*%
%TO.CMnt,SMD*%
%TO.CRot,0*%
X101910000Y-95540000D03*
D11*
X103585000Y-94595000D02*
X103585000Y-96485000D01*
X100235000Y-96485000D01*
X100235000Y-94595000D01*
X103585000Y-94595000D01*
D12*
%TO.P,R5,1*%
X100997500Y-95540000D03*
D13*
%TO.P,R5,2*%
X102822500Y-95540000D03*
%TD*%
D10*
%TO.C,R8*%
%TO.CFtp,R_0805_2012Metric*%
%TO.CVal,470Ω*%
%TO.CLbN,Resistor_SMD*%
%TO.CMnt,SMD*%
%TO.CRot,180*%
X55500000Y-102000000D03*
D11*
X57175000Y-101055000D02*
X57175000Y-102945000D01*
X53825000Y-102945000D01*
X53825000Y-101055000D01*
X57175000Y-101055000D01*
D12*
%TO.P,R8,1*%
X56412500Y-102000000D03*
D13*
%TO.P,R8,2*%
X54587500Y-102000000D03*
%TD*%
D10*
%TO.C,R2*%
%TO.CFtp,R_0805_2012Metric*%
%TO.CVal,1kΩ*%
%TO.CLbN,Resistor_SMD*%
%TO.CMnt,SMD*%
%TO.CRot,-90*%
X62550000Y-93500000D03*
D11*
X63495000Y-91825000D02*
X63495000Y-95175000D01*
X61605000Y-95175000D01*
X61605000Y-91825000D01*
X63495000Y-91825000D01*
D12*
%TO.P,R2,1*%
X62550000Y-92587500D03*
D13*
%TO.P,R2,2*%
X62550000Y-94412500D03*
%TD*%
D10*
%TO.C,Q2*%
%TO.CFtp,SOT-23*%
%TO.CVal,AO3401A*%
%TO.CLbN,Package_TO_SOT_SMD*%
%TO.CMnt,SMD*%
%TO.CRot,180*%
X57500000Y-89412500D03*
D11*
X58395000Y-87717500D02*
X58395000Y-87917500D01*
X59425000Y-87917500D01*
X59425000Y-89017500D01*
X58395000Y-89017500D01*
X58395000Y-89807500D01*
X59425000Y-89807500D01*
X59425000Y-90907500D01*
X58395000Y-90907500D01*
X58395000Y-91107500D01*
X56605000Y-91107500D01*
X56605000Y-89957500D01*
X55575000Y-89957500D01*
X55575000Y-88867500D01*
X56605000Y-88867500D01*
X56605000Y-87717500D01*
X58395000Y-87717500D01*
D12*
%TO.P,Q2,1,G_1*%
X58437500Y-90362500D03*
D13*
%TO.P,Q2,2,S_2*%
X58437500Y-88462500D03*
%TO.P,Q2,3,D_3*%
X56562500Y-89412500D03*
%TD*%
M02*
