M48
; DRILL file KiCad 10.0.2 date 2026-06-12T13:25:09
; FORMAT={-:-/ absolute / metric / decimal}
; #@! TF.CreationDate,2026-06-12T13:25:09-03:00
; #@! TF.GenerationSoftware,Kicad,Pcbnew,10.0.2
; #@! TF.FileFunction,Plated,1,2,PTH
FMAT,2
METRIC
; #@! TA.AperFunction,Plated,PTH,ViaDrill
T1C0.300
; #@! TA.AperFunction,Plated,PTH,ComponentDrill
T2C0.750
; #@! TA.AperFunction,Plated,PTH,ComponentDrill
T3C0.900
; #@! TA.AperFunction,Plated,PTH,ComponentDrill
T4C1.000
; #@! TA.AperFunction,Plated,PTH,ComponentDrill
T5C1.500
; #@! TA.AperFunction,Plated,PTH,ComponentDrill
T6C2.200
%
G90
G05
T1
X52.0Y-112.0
X52.5Y-105.5
X53.5Y-100.5
X59.5Y-108.5
X60.425Y-93.5
X62.0Y-95.862
X63.5Y-101.5
X65.5Y-85.5
X94.5Y-86.0
X99.5Y-74.5
X99.5Y-109.5
T2
X56.5Y-79.0
X56.5Y-81.0
T3
X52.55Y-88.5
X52.55Y-90.5
X52.55Y-92.5
T4
X68.295Y-72.48
X68.295Y-75.02
X68.295Y-77.56
X68.295Y-80.1
X68.295Y-82.64
X68.295Y-85.18
X68.295Y-87.72
X68.295Y-90.26
X68.295Y-92.8
X68.295Y-95.34
X68.295Y-97.88
X68.295Y-100.42
X68.295Y-102.96
X68.295Y-105.5
X68.295Y-108.04
X68.295Y-110.58
X68.295Y-113.12
X68.295Y-115.66
X68.295Y-118.2
X92.0Y-72.48
X92.0Y-75.02
X92.0Y-77.56
X92.0Y-80.1
X92.0Y-82.64
X92.0Y-85.18
X92.0Y-87.72
X92.0Y-90.26
X92.0Y-92.8
X92.0Y-95.34
X92.0Y-97.88
X92.0Y-100.42
X92.0Y-102.96
X92.0Y-105.5
X92.0Y-108.04
X92.0Y-110.58
X92.0Y-113.12
X92.0Y-115.66
X92.0Y-118.2
X102.0Y-73.46
X102.0Y-76.0
X102.0Y-78.54
X102.0Y-84.92
X102.0Y-87.46
X102.0Y-90.0
T5
X52.55Y-86.4
X52.55Y-94.6
T6
X52.5Y-73.0
X52.5Y-118.0
X109.5Y-73.0
X109.5Y-118.0
M30
