%TF.GenerationSoftware,KiCad,Pcbnew,10.0.2*%
%TF.CreationDate,2026-06-12T13:24:58-03:00*%
%TF.ProjectId,water-quality-analyzer-pcb,77617465-722d-4717-9561-6c6974792d61,v1.0.0*%
%TF.SameCoordinates,Original*%
%TF.FileFunction,Copper,L2,Bot*%
%TF.FilePolarity,Positive*%
%FSLAX46Y46*%
G04 Gerber Fmt 4.6, Leading zero omitted, Abs format (unit mm)*
G04 Created by KiCad (PCBNEW 10.0.2) date 2026-06-12 13:24:58*
%MOMM*%
%LPD*%
G01*
G04 APERTURE LIST*
G04 Aperture macros list*
%AMRoundRect*
0 Rectangle with rounded corners*
0 $1 Rounding radius*
0 $2 $3 $4 $5 $6 $7 $8 $9 X,Y pos of 4 corners*
0 Add a 4 corners polygon primitive as box body*
4,1,4,$2,$3,$4,$5,$6,$7,$8,$9,$2,$3,0*
0 Add four circle primitives for the rounded corners*
1,1,$1+$1,$2,$3*
1,1,$1+$1,$4,$5*
1,1,$1+$1,$6,$7*
1,1,$1+$1,$8,$9*
0 Add four rect primitives between the rounded corners*
20,1,$1+$1,$2,$3,$4,$5,0*
20,1,$1+$1,$4,$5,$6,$7,0*
20,1,$1+$1,$6,$7,$8,$9,0*
20,1,$1+$1,$8,$9,$2,$3,0*%
G04 Aperture macros list end*
%TA.AperFunction,ComponentPad*%
%ADD10R,1.700000X1.700000*%
%TD*%
%TA.AperFunction,ComponentPad*%
%ADD11C,1.700000*%
%TD*%
%TA.AperFunction,ComponentPad*%
%ADD12C,3.800000*%
%TD*%
%TA.AperFunction,ComponentPad*%
%ADD13O,3.500000X2.200000*%
%TD*%
%TA.AperFunction,ComponentPad*%
%ADD14R,2.500000X1.500000*%
%TD*%
%TA.AperFunction,ComponentPad*%
%ADD15O,2.500000X1.500000*%
%TD*%
%TA.AperFunction,ComponentPad*%
%ADD16RoundRect,0.250000X-0.625000X0.350000X-0.625000X-0.350000X0.625000X-0.350000X0.625000X0.350000X0*%
%TD*%
%TA.AperFunction,ComponentPad*%
%ADD17O,1.750000X1.200000*%
%TD*%
%TA.AperFunction,ViaPad*%
%ADD18C,0.600000*%
%TD*%
%TA.AperFunction,Conductor*%
%ADD19C,0.500000*%
%TD*%
G04 APERTURE END LIST*
D10*
%TO.P,J4,1,Pin_1_1*%
%TO.N,/TDS_SIGNAL*%
X102000000Y-84920000D03*
D11*
%TO.P,J4,2,Pin_2_2*%
%TO.N,/5V*%
X102000000Y-87460000D03*
%TO.P,J4,3,Pin_3_3*%
%TO.N,/GND*%
X102000000Y-90000000D03*
%TD*%
D12*
%TO.P,REF\u002A\u002A,1*%
%TO.N,N/C*%
X109500000Y-118000000D03*
%TD*%
D10*
%TO.P,J2,1,Pin_1_1*%
%TO.N,unconnected-(J2-Pin_1-Pad1)*%
X92000000Y-118200000D03*
D11*
%TO.P,J2,2,Pin_2_2*%
%TO.N,unconnected-(J2-Pin_2-Pad2)*%
X92000000Y-115660000D03*
%TO.P,J2,3,Pin_3_3*%
%TO.N,unconnected-(J2-Pin_3-Pad3)*%
X92000000Y-113120000D03*
%TO.P,J2,4,Pin_4_4*%
%TO.N,/PH_SIGNAL*%
X92000000Y-110580000D03*
%TO.P,J2,5,Pin_5_5*%
%TO.N,/TDS_SIGNAL*%
X92000000Y-108040000D03*
%TO.P,J2,6,Pin_6_6*%
%TO.N,/TURBIDITY_SIGNAL*%
X92000000Y-105500000D03*
%TO.P,J2,7,Pin_7_7*%
%TO.N,unconnected-(J2-Pin_7-Pad7)*%
X92000000Y-102960000D03*
%TO.P,J2,8,Pin_8_8*%
%TO.N,unconnected-(J2-Pin_8-Pad8)*%
X92000000Y-100420000D03*
%TO.P,J2,9,Pin_9_9*%
%TO.N,unconnected-(J2-Pin_9-Pad9)*%
X92000000Y-97880000D03*
%TO.P,J2,10,Pin_10_10*%
%TO.N,unconnected-(J2-Pin_10-Pad10)*%
X92000000Y-95340000D03*
%TO.P,J2,11,Pin_11_11*%
%TO.N,unconnected-(J2-Pin_11-Pad11)*%
X92000000Y-92800000D03*
%TO.P,J2,12,Pin_12_12*%
%TO.N,unconnected-(J2-Pin_12-Pad12)*%
X92000000Y-90260000D03*
%TO.P,J2,13,Pin_13_13*%
%TO.N,unconnected-(J2-Pin_13-Pad13)*%
X92000000Y-87720000D03*
%TO.P,J2,14,Pin_14_14*%
%TO.N,/GND*%
X92000000Y-85180000D03*
%TO.P,J2,15,Pin_15_15*%
%TO.N,unconnected-(J2-Pin_15-Pad15)*%
X92000000Y-82640000D03*
%TO.P,J2,16,Pin_16_16*%
%TO.N,unconnected-(J2-Pin_16-Pad16)*%
X92000000Y-80100000D03*
%TO.P,J2,17,Pin_17_17*%
%TO.N,unconnected-(J2-Pin_17-Pad17)*%
X92000000Y-77560000D03*
%TO.P,J2,18,Pin_18_18*%
%TO.N,unconnected-(J2-Pin_18-Pad18)*%
X92000000Y-75020000D03*
%TO.P,J2,19,Pin_19_19*%
%TO.N,/5V*%
X92000000Y-72480000D03*
%TD*%
D10*
%TO.P,J5,1,Pin_1_1*%
%TO.N,/GND*%
X102000000Y-73460000D03*
D11*
%TO.P,J5,2,Pin_2_2*%
%TO.N,/TURBIDITY_SIGNAL*%
X102000000Y-76000000D03*
%TO.P,J5,3,Pin_3_3*%
%TO.N,/5V*%
X102000000Y-78540000D03*
%TD*%
D13*
%TO.P,SW1,*%
%TO.N,*%
X52550000Y-86400000D03*
X52550000Y-94600000D03*
D14*
%TO.P,SW1,1,C_1*%
%TO.N,unconnected-(SW1-C-Pad1)*%
X52550000Y-88500000D03*
D15*
%TO.P,SW1,2,B_2*%
%TO.N,Net-(Q2-D)*%
X52550000Y-90500000D03*
%TO.P,SW1,3,A_3*%
%TO.N,Net-(SW1-A)*%
X52550000Y-92500000D03*
%TD*%
D12*
%TO.P,REF\u002A\u002A,1*%
%TO.N,N/C*%
X52500000Y-118000000D03*
%TD*%
D16*
%TO.P,BT1,1,+_1*%
%TO.N,Net-(BT1-+)*%
X56500000Y-79000000D03*
D17*
%TO.P,BT1,2,-_2*%
%TO.N,Net-(BT1--)*%
X56500000Y-81000000D03*
%TD*%
D12*
%TO.P,REF\u002A\u002A,1*%
%TO.N,N/C*%
X52500000Y-73000000D03*
%TD*%
D10*
%TO.P,J1,1,Pin_1_1*%
%TO.N,unconnected-(J1-Pin_1-Pad1)*%
X68295000Y-118200000D03*
D11*
%TO.P,J1,2,Pin_2_2*%
%TO.N,unconnected-(J1-Pin_2-Pad2)*%
X68295000Y-115660000D03*
%TO.P,J1,3,Pin_3_3*%
%TO.N,unconnected-(J1-Pin_3-Pad3)*%
X68295000Y-113120000D03*
%TO.P,J1,4,Pin_4_4*%
%TO.N,unconnected-(J1-Pin_4-Pad4)*%
X68295000Y-110580000D03*
%TO.P,J1,5,Pin_5_5*%
%TO.N,unconnected-(J1-Pin_5-Pad5)*%
X68295000Y-108040000D03*
%TO.P,J1,6,Pin_6_6*%
%TO.N,unconnected-(J1-Pin_6-Pad6)*%
X68295000Y-105500000D03*
%TO.P,J1,7,Pin_7_7*%
%TO.N,unconnected-(J1-Pin_7-Pad7)*%
X68295000Y-102960000D03*
%TO.P,J1,8,Pin_8_8*%
%TO.N,unconnected-(J1-Pin_8-Pad8)*%
X68295000Y-100420000D03*
%TO.P,J1,9,Pin_9_9*%
%TO.N,unconnected-(J1-Pin_9-Pad9)*%
X68295000Y-97880000D03*
%TO.P,J1,10,Pin_10_10*%
%TO.N,unconnected-(J1-Pin_10-Pad10)*%
X68295000Y-95340000D03*
%TO.P,J1,11,Pin_11_11*%
%TO.N,unconnected-(J1-Pin_11-Pad11)*%
X68295000Y-92800000D03*
%TO.P,J1,12,Pin_12_12*%
%TO.N,unconnected-(J1-Pin_12-Pad12)*%
X68295000Y-90260000D03*
%TO.P,J1,13,Pin_13_13*%
%TO.N,/GND*%
X68295000Y-87720000D03*
%TO.P,J1,14,Pin_14_14*%
%TO.N,unconnected-(J1-Pin_14-Pad14)*%
X68295000Y-85180000D03*
%TO.P,J1,15,Pin_15_15*%
%TO.N,unconnected-(J1-Pin_15-Pad15)*%
X68295000Y-82640000D03*
%TO.P,J1,16,Pin_16_16*%
%TO.N,unconnected-(J1-Pin_16-Pad16)*%
X68295000Y-80100000D03*
%TO.P,J1,17,Pin_17_17*%
%TO.N,unconnected-(J1-Pin_17-Pad17)*%
X68295000Y-77560000D03*
%TO.P,J1,18,Pin_18_18*%
%TO.N,unconnected-(J1-Pin_18-Pad18)*%
X68295000Y-75020000D03*
%TO.P,J1,19,Pin_19_19*%
%TO.N,unconnected-(J1-Pin_19-Pad19)*%
X68295000Y-72480000D03*
%TD*%
D12*
%TO.P,REF\u002A\u002A,1*%
%TO.N,N/C*%
X109500000Y-73000000D03*
%TD*%
D18*
%TO.N,/GND*%
X60425000Y-93500000D03*
X62000000Y-95862500D03*
X59500000Y-108500000D03*
X53500000Y-100500000D03*
X99500000Y-109500000D03*
X94500000Y-86000000D03*
X63500000Y-101500000D03*
X52500000Y-105500000D03*
X99500000Y-74500000D03*
X52000000Y-112000000D03*
X65500000Y-85500000D03*
%TD*%
%TO.N,/GND*%
D19*
X60500000Y-101500000D02*
X63500000Y-101500000D01*
X62000000Y-95862500D02*
X62000000Y-100000000D01*
X62000000Y-100000000D02*
X60500000Y-101500000D01*
X62000000Y-95862500D02*
X62000000Y-95075000D01*
X62000000Y-95075000D02*
X60425000Y-93500000D01*
X52500000Y-105500000D02*
X56500000Y-105500000D01*
X52000000Y-106000000D02*
X52500000Y-105500000D01*
X99500000Y-109500000D02*
X99500000Y-92500000D01*
X53500000Y-100500000D02*
X54500000Y-101500000D01*
X52000000Y-112000000D02*
X52000000Y-106000000D01*
X68295000Y-87720000D02*
X67720000Y-87720000D01*
X99500000Y-91000000D02*
X99500000Y-92500000D01*
X99500000Y-92500000D02*
X102000000Y-90000000D01*
X63500000Y-101500000D02*
X65500000Y-99500000D01*
X94500000Y-86000000D02*
X99500000Y-91000000D01*
X65500000Y-99500000D02*
X65500000Y-90515000D01*
X99500000Y-74500000D02*
X99500000Y-91000000D01*
X67720000Y-87720000D02*
X65500000Y-85500000D01*
X65500000Y-90515000D02*
X68295000Y-87720000D01*
X56500000Y-105500000D02*
X59500000Y-108500000D01*
X53500000Y-104500000D02*
X52500000Y-105500000D01*
X53500000Y-100500000D02*
X53500000Y-104500000D01*
X54500000Y-101500000D02*
X60500000Y-101500000D01*
%TD*%
%TA.AperFunction,Conductor*%
%TO.N,/GND*%
G36*
X110504418Y-70500816D02*
G01*
X110704561Y-70515130D01*
X110722063Y-70517647D01*
X110913795Y-70559355D01*
X110930760Y-70564336D01*
X111114611Y-70632909D01*
X111130694Y-70640253D01*
X111247495Y-70704032D01*
X111302908Y-70734290D01*
X111317791Y-70743855D01*
X111474864Y-70861438D01*
X111488235Y-70873024D01*
X111626975Y-71011764D01*
X111638561Y-71025135D01*
X111756144Y-71182208D01*
X111765709Y-71197091D01*
X111859743Y-71369300D01*
X111867093Y-71385394D01*
X111935661Y-71569234D01*
X111940645Y-71586209D01*
X111982351Y-71777931D01*
X111984869Y-71795442D01*
X111999184Y-71995580D01*
X111999500Y-72004427D01*
X111999500Y-118995572D01*
X111999184Y-119004419D01*
X111984869Y-119204557D01*
X111982351Y-119222068D01*
X111940645Y-119413790D01*
X111935661Y-119430765D01*
X111867093Y-119614605D01*
X111859743Y-119630699D01*
X111765709Y-119802908D01*
X111756144Y-119817791D01*
X111638561Y-119974864D01*
X111626975Y-119988235D01*
X111488235Y-120126975D01*
X111474864Y-120138561D01*
X111317791Y-120256144D01*
X111302908Y-120265709D01*
X111130699Y-120359743D01*
X111114605Y-120367093D01*
X110930765Y-120435661D01*
X110913790Y-120440645D01*
X110722068Y-120482351D01*
X110704557Y-120484869D01*
X110523779Y-120497799D01*
X110504417Y-120499184D01*
X110495572Y-120499500D01*
X104124000Y-120499500D01*
X104056961Y-120479815D01*
X104011206Y-120427011D01*
X104000000Y-120375500D01*
X104000000Y-117865602D01*
X107449500Y-117865602D01*
X107449500Y-118134397D01*
X107484582Y-118400880D01*
X107484583Y-118400885D01*
X107484584Y-118400891D01*
X107484585Y-118400893D01*
X107554152Y-118660524D01*
X107657011Y-118908850D01*
X107657019Y-118908866D01*
X107737830Y-119048832D01*
X107791413Y-119141641D01*
X107791415Y-119141644D01*
X107791416Y-119141645D01*
X107955042Y-119354888D01*
X107955048Y-119354895D01*
X108145104Y-119544951D01*
X108145110Y-119544956D01*
X108358359Y-119708587D01*
X108507968Y-119794964D01*
X108591133Y-119842980D01*
X108591149Y-119842988D01*
X108746008Y-119907132D01*
X108839474Y-119945847D01*
X109099109Y-120015416D01*
X109287319Y-120040193D01*
X109365602Y-120050500D01*
X109365603Y-120050500D01*
X109634398Y-120050500D01*
X109694905Y-120042534D01*
X109900891Y-120015416D01*
X110160526Y-119945847D01*
X110347457Y-119868417D01*
X110408850Y-119842988D01*
X110408853Y-119842986D01*
X110408859Y-119842984D01*
X110641641Y-119708587D01*
X110854890Y-119544956D01*
X111044956Y-119354890D01*
X111208587Y-119141641D01*
X111342984Y-118908859D01*
X111445847Y-118660526D01*
X111515416Y-118400891D01*
X111550500Y-118134397D01*
X111550500Y-117865603D01*
X111515416Y-117599109D01*
X111445847Y-117339474D01*
X111407132Y-117246008D01*
X111342988Y-117091149D01*
X111342980Y-117091133D01*
X111294964Y-117007968D01*
X111208587Y-116858359D01*
X111044956Y-116645110D01*
X111044951Y-116645104D01*
X110854895Y-116455048D01*
X110854888Y-116455042D01*
X110641645Y-116291416D01*
X110641644Y-116291415D01*
X110641641Y-116291413D01*
X110548832Y-116237830D01*
X110408866Y-116157019D01*
X110408850Y-116157011D01*
X110160524Y-116054152D01*
X110030708Y-116019368D01*
X109900891Y-115984584D01*
X109900885Y-115984583D01*
X109900880Y-115984582D01*
X109634398Y-115949500D01*
X109634397Y-115949500D01*
X109365603Y-115949500D01*
X109365602Y-115949500D01*
X109099119Y-115984582D01*
X109099112Y-115984583D01*
X109099109Y-115984584D01*
X109044239Y-115999286D01*
X108839475Y-116054152D01*
X108591149Y-116157011D01*
X108591133Y-116157019D01*
X108358354Y-116291416D01*
X108145111Y-116455042D01*
X108145104Y-116455048D01*
X107955048Y-116645104D01*
X107955042Y-116645111D01*
X107791416Y-116858354D01*
X107657019Y-117091133D01*
X107657011Y-117091149D01*
X107554152Y-117339475D01*
X107484585Y-117599106D01*
X107484582Y-117599119D01*
X107449500Y-117865602D01*
X104000000Y-117865602D01*
X104000000Y-114300000D01*
X92389050Y-114300000D01*
X92322011Y-114280315D01*
X92276256Y-114227511D01*
X92266312Y-114158353D01*
X92295337Y-114094797D01*
X92341598Y-114061439D01*
X92473907Y-114006635D01*
X92473907Y-114006634D01*
X92473914Y-114006632D01*
X92637782Y-113897139D01*
X92777139Y-113757782D01*
X92886632Y-113593914D01*
X92962051Y-113411835D01*
X93000500Y-113218541D01*
X93000500Y-113021459D01*
X93000500Y-113021456D01*
X92962052Y-112828170D01*
X92962051Y-112828169D01*
X92962051Y-112828165D01*
X92962049Y-112828160D01*
X92886635Y-112646092D01*
X92886628Y-112646079D01*
X92777139Y-112482218D01*
X92777136Y-112482214D01*
X92637785Y-112342863D01*
X92637781Y-112342860D01*
X92473920Y-112233371D01*
X92473907Y-112233364D01*
X92291839Y-112157950D01*
X92291829Y-112157947D01*
X92098543Y-112119500D01*
X92098541Y-112119500D01*
X91901459Y-112119500D01*
X91901457Y-112119500D01*
X91708170Y-112157947D01*
X91708160Y-112157950D01*
X91526092Y-112233364D01*
X91526079Y-112233371D01*
X91362218Y-112342860D01*
X91362214Y-112342863D01*
X91222863Y-112482214D01*
X91222860Y-112482218D01*
X91113371Y-112646079D01*
X91113364Y-112646092D01*
X91037950Y-112828160D01*
X91037947Y-112828170D01*
X90999500Y-113021456D01*
X90999500Y-113021459D01*
X90999500Y-113218541D01*
X90999500Y-113218543D01*
X90999499Y-113218543D01*
X91037947Y-113411829D01*
X91037950Y-113411839D01*
X91113364Y-113593907D01*
X91113371Y-113593920D01*
X91222860Y-113757781D01*
X91222863Y-113757785D01*
X91362214Y-113897136D01*
X91362218Y-113897139D01*
X91526079Y-114006628D01*
X91526092Y-114006635D01*
X91658402Y-114061439D01*
X91712806Y-114105280D01*
X91734871Y-114171574D01*
X91717592Y-114239273D01*
X91666455Y-114286884D01*
X91610950Y-114300000D01*
X68684050Y-114300000D01*
X68617011Y-114280315D01*
X68571256Y-114227511D01*
X68561312Y-114158353D01*
X68590337Y-114094797D01*
X68636598Y-114061439D01*
X68768907Y-114006635D01*
X68768907Y-114006634D01*
X68768914Y-114006632D01*
X68932782Y-113897139D01*
X69072139Y-113757782D01*
X69181632Y-113593914D01*
X69257051Y-113411835D01*
X69295500Y-113218541D01*
X69295500Y-113021459D01*
X69295500Y-113021456D01*
X69257052Y-112828170D01*
X69257051Y-112828169D01*
X69257051Y-112828165D01*
X69257049Y-112828160D01*
X69181635Y-112646092D01*
X69181628Y-112646079D01*
X69072139Y-112482218D01*
X69072136Y-112482214D01*
X68932785Y-112342863D01*
X68932781Y-112342860D01*
X68768920Y-112233371D01*
X68768907Y-112233364D01*
X68586839Y-112157950D01*
X68586829Y-112157947D01*
X68393543Y-112119500D01*
X68393541Y-112119500D01*
X68196459Y-112119500D01*
X68196457Y-112119500D01*
X68003170Y-112157947D01*
X68003160Y-112157950D01*
X67821092Y-112233364D01*
X67821079Y-112233371D01*
X67657218Y-112342860D01*
X67657214Y-112342863D01*
X67517863Y-112482214D01*
X67517860Y-112482218D01*
X67408371Y-112646079D01*
X67408364Y-112646092D01*
X67332950Y-112828160D01*
X67332947Y-112828170D01*
X67294500Y-113021456D01*
X67294500Y-113021459D01*
X67294500Y-113218541D01*
X67294500Y-113218543D01*
X67294499Y-113218543D01*
X67332947Y-113411829D01*
X67332950Y-113411839D01*
X67408364Y-113593907D01*
X67408371Y-113593920D01*
X67517860Y-113757781D01*
X67517863Y-113757785D01*
X67657214Y-113897136D01*
X67657218Y-113897139D01*
X67821079Y-114006628D01*
X67821092Y-114006635D01*
X67953402Y-114061439D01*
X68007806Y-114105280D01*
X68029871Y-114171574D01*
X68012592Y-114239273D01*
X67961455Y-114286884D01*
X67905950Y-114300000D01*
X56000000Y-114300000D01*
X56000000Y-120375500D01*
X55980315Y-120442539D01*
X55927511Y-120488294D01*
X55876000Y-120499500D01*
X51504428Y-120499500D01*
X51495582Y-120499184D01*
X51473622Y-120497613D01*
X51295442Y-120484869D01*
X51277931Y-120482351D01*
X51086209Y-120440645D01*
X51069234Y-120435661D01*
X50885394Y-120367093D01*
X50869300Y-120359743D01*
X50697091Y-120265709D01*
X50682208Y-120256144D01*
X50525135Y-120138561D01*
X50511764Y-120126975D01*
X50373024Y-119988235D01*
X50361438Y-119974864D01*
X50243855Y-119817791D01*
X50234290Y-119802908D01*
X50202815Y-119745266D01*
X50140253Y-119630694D01*
X50132909Y-119614611D01*
X50064336Y-119430760D01*
X50059354Y-119413790D01*
X50046542Y-119354895D01*
X50017647Y-119222063D01*
X50015130Y-119204556D01*
X50010630Y-119141641D01*
X50000816Y-119004418D01*
X50000500Y-118995572D01*
X50000500Y-117865602D01*
X50449500Y-117865602D01*
X50449500Y-118134397D01*
X50484582Y-118400880D01*
X50484583Y-118400885D01*
X50484584Y-118400891D01*
X50484585Y-118400893D01*
X50554152Y-118660524D01*
X50657011Y-118908850D01*
X50657019Y-118908866D01*
X50737830Y-119048832D01*
X50791413Y-119141641D01*
X50791415Y-119141644D01*
X50791416Y-119141645D01*
X50955042Y-119354888D01*
X50955048Y-119354895D01*
X51145104Y-119544951D01*
X51145110Y-119544956D01*
X51358359Y-119708587D01*
X51507968Y-119794964D01*
X51591133Y-119842980D01*
X51591149Y-119842988D01*
X51746008Y-119907132D01*
X51839474Y-119945847D01*
X52099109Y-120015416D01*
X52287319Y-120040193D01*
X52365602Y-120050500D01*
X52365603Y-120050500D01*
X52634398Y-120050500D01*
X52694905Y-120042534D01*
X52900891Y-120015416D01*
X53160526Y-119945847D01*
X53347457Y-119868417D01*
X53408850Y-119842988D01*
X53408853Y-119842986D01*
X53408859Y-119842984D01*
X53641641Y-119708587D01*
X53854890Y-119544956D01*
X54044956Y-119354890D01*
X54208587Y-119141641D01*
X54342984Y-118908859D01*
X54445847Y-118660526D01*
X54515416Y-118400891D01*
X54550500Y-118134397D01*
X54550500Y-117865603D01*
X54515416Y-117599109D01*
X54445847Y-117339474D01*
X54407132Y-117246008D01*
X54342988Y-117091149D01*
X54342980Y-117091133D01*
X54294964Y-117007968D01*
X54208587Y-116858359D01*
X54044956Y-116645110D01*
X54044951Y-116645104D01*
X53854895Y-116455048D01*
X53854888Y-116455042D01*
X53641645Y-116291416D01*
X53641644Y-116291415D01*
X53641641Y-116291413D01*
X53548832Y-116237830D01*
X53408866Y-116157019D01*
X53408850Y-116157011D01*
X53160524Y-116054152D01*
X53030708Y-116019368D01*
X52900891Y-115984584D01*
X52900885Y-115984583D01*
X52900880Y-115984582D01*
X52634398Y-115949500D01*
X52634397Y-115949500D01*
X52365603Y-115949500D01*
X52365602Y-115949500D01*
X52099119Y-115984582D01*
X52099112Y-115984583D01*
X52099109Y-115984584D01*
X52044239Y-115999286D01*
X51839475Y-116054152D01*
X51591149Y-116157011D01*
X51591133Y-116157019D01*
X51358354Y-116291416D01*
X51145111Y-116455042D01*
X51145104Y-116455048D01*
X50955048Y-116645104D01*
X50955042Y-116645111D01*
X50791416Y-116858354D01*
X50657019Y-117091133D01*
X50657011Y-117091149D01*
X50554152Y-117339475D01*
X50484585Y-117599106D01*
X50484582Y-117599119D01*
X50449500Y-117865602D01*
X50000500Y-117865602D01*
X50000500Y-110678543D01*
X67294499Y-110678543D01*
X67332947Y-110871829D01*
X67332950Y-110871839D01*
X67408364Y-111053907D01*
X67408371Y-111053920D01*
X67517860Y-111217781D01*
X67517863Y-111217785D01*
X67657214Y-111357136D01*
X67657218Y-111357139D01*
X67821079Y-111466628D01*
X67821092Y-111466635D01*
X68003160Y-111542049D01*
X68003165Y-111542051D01*
X68003169Y-111542051D01*
X68003170Y-111542052D01*
X68196456Y-111580500D01*
X68196459Y-111580500D01*
X68393543Y-111580500D01*
X68523582Y-111554632D01*
X68586835Y-111542051D01*
X68768914Y-111466632D01*
X68932782Y-111357139D01*
X69072139Y-111217782D01*
X69181632Y-111053914D01*
X69257051Y-110871835D01*
X69295500Y-110678543D01*
X90999499Y-110678543D01*
X91037947Y-110871829D01*
X91037950Y-110871839D01*
X91113364Y-111053907D01*
X91113371Y-111053920D01*
X91222860Y-111217781D01*
X91222863Y-111217785D01*
X91362214Y-111357136D01*
X91362218Y-111357139D01*
X91526079Y-111466628D01*
X91526092Y-111466635D01*
X91708160Y-111542049D01*
X91708165Y-111542051D01*
X91708169Y-111542051D01*
X91708170Y-111542052D01*
X91901456Y-111580500D01*
X91901459Y-111580500D01*
X92098543Y-111580500D01*
X92228582Y-111554632D01*
X92291835Y-111542051D01*
X92473914Y-111466632D01*
X92637782Y-111357139D01*
X92777139Y-111217782D01*
X92886632Y-111053914D01*
X92962051Y-110871835D01*
X93000500Y-110678541D01*
X93000500Y-110481459D01*
X93000500Y-110481456D01*
X92962052Y-110288170D01*
X92962051Y-110288169D01*
X92962051Y-110288165D01*
X92962049Y-110288160D01*
X92886635Y-110106092D01*
X92886628Y-110106079D01*
X92777139Y-109942218D01*
X92777136Y-109942214D01*
X92637785Y-109802863D01*
X92637781Y-109802860D01*
X92473920Y-109693371D01*
X92473907Y-109693364D01*
X92291839Y-109617950D01*
X92291829Y-109617947D01*
X92098543Y-109579500D01*
X92098541Y-109579500D01*
X91901459Y-109579500D01*
X91901457Y-109579500D01*
X91708170Y-109617947D01*
X91708160Y-109617950D01*
X91526092Y-109693364D01*
X91526079Y-109693371D01*
X91362218Y-109802860D01*
X91362214Y-109802863D01*
X91222863Y-109942214D01*
X91222860Y-109942218D01*
X91113371Y-110106079D01*
X91113364Y-110106092D01*
X91037950Y-110288160D01*
X91037947Y-110288170D01*
X90999500Y-110481456D01*
X90999500Y-110481459D01*
X90999500Y-110678541D01*
X90999500Y-110678543D01*
X90999499Y-110678543D01*
X69295500Y-110678543D01*
X69295500Y-110678541D01*
X69295500Y-110481459D01*
X69295500Y-110481456D01*
X69257052Y-110288170D01*
X69257051Y-110288169D01*
X69257051Y-110288165D01*
X69257049Y-110288160D01*
X69181635Y-110106092D01*
X69181628Y-110106079D01*
X69072139Y-109942218D01*
X69072136Y-109942214D01*
X68932785Y-109802863D01*
X68932781Y-109802860D01*
X68768920Y-109693371D01*
X68768907Y-109693364D01*
X68586839Y-109617950D01*
X68586829Y-109617947D01*
X68393543Y-109579500D01*
X68393541Y-109579500D01*
X68196459Y-109579500D01*
X68196457Y-109579500D01*
X68003170Y-109617947D01*
X68003160Y-109617950D01*
X67821092Y-109693364D01*
X67821079Y-109693371D01*
X67657218Y-109802860D01*
X67657214Y-109802863D01*
X67517863Y-109942214D01*
X67517860Y-109942218D01*
X67408371Y-110106079D01*
X67408364Y-110106092D01*
X67332950Y-110288160D01*
X67332947Y-110288170D01*
X67294500Y-110481456D01*
X67294500Y-110481459D01*
X67294500Y-110678541D01*
X67294500Y-110678543D01*
X67294499Y-110678543D01*
X50000500Y-110678543D01*
X50000500Y-108138543D01*
X67294499Y-108138543D01*
X67332947Y-108331829D01*
X67332950Y-108331839D01*
X67408364Y-108513907D01*
X67408371Y-108513920D01*
X67517860Y-108677781D01*
X67517863Y-108677785D01*
X67657214Y-108817136D01*
X67657218Y-108817139D01*
X67821079Y-108926628D01*
X67821092Y-108926635D01*
X68003160Y-109002049D01*
X68003165Y-109002051D01*
X68003169Y-109002051D01*
X68003170Y-109002052D01*
X68196456Y-109040500D01*
X68196459Y-109040500D01*
X68393543Y-109040500D01*
X68523582Y-109014632D01*
X68586835Y-109002051D01*
X68768914Y-108926632D01*
X68932782Y-108817139D01*
X69072139Y-108677782D01*
X69181632Y-108513914D01*
X69257051Y-108331835D01*
X69295500Y-108138543D01*
X90999499Y-108138543D01*
X91037947Y-108331829D01*
X91037950Y-108331839D01*
X91113364Y-108513907D01*
X91113371Y-108513920D01*
X91222860Y-108677781D01*
X91222863Y-108677785D01*
X91362214Y-108817136D01*
X91362218Y-108817139D01*
X91526079Y-108926628D01*
X91526092Y-108926635D01*
X91708160Y-109002049D01*
X91708165Y-109002051D01*
X91708169Y-109002051D01*
X91708170Y-109002052D01*
X91901456Y-109040500D01*
X91901459Y-109040500D01*
X92098543Y-109040500D01*
X92228582Y-109014632D01*
X92291835Y-109002051D01*
X92473914Y-108926632D01*
X92637782Y-108817139D01*
X92777139Y-108677782D01*
X92886632Y-108513914D01*
X92962051Y-108331835D01*
X93000500Y-108138541D01*
X93000500Y-107941459D01*
X93000500Y-107941456D01*
X92962052Y-107748170D01*
X92962051Y-107748169D01*
X92962051Y-107748165D01*
X92962049Y-107748160D01*
X92886635Y-107566092D01*
X92886628Y-107566079D01*
X92777139Y-107402218D01*
X92777136Y-107402214D01*
X92637785Y-107262863D01*
X92637781Y-107262860D01*
X92473920Y-107153371D01*
X92473907Y-107153364D01*
X92291839Y-107077950D01*
X92291829Y-107077947D01*
X92098543Y-107039500D01*
X92098541Y-107039500D01*
X91901459Y-107039500D01*
X91901457Y-107039500D01*
X91708170Y-107077947D01*
X91708160Y-107077950D01*
X91526092Y-107153364D01*
X91526079Y-107153371D01*
X91362218Y-107262860D01*
X91362214Y-107262863D01*
X91222863Y-107402214D01*
X91222860Y-107402218D01*
X91113371Y-107566079D01*
X91113364Y-107566092D01*
X91037950Y-107748160D01*
X91037947Y-107748170D01*
X90999500Y-107941456D01*
X90999500Y-107941459D01*
X90999500Y-108138541D01*
X90999500Y-108138543D01*
X90999499Y-108138543D01*
X69295500Y-108138543D01*
X69295500Y-108138541D01*
X69295500Y-107941459D01*
X69295500Y-107941456D01*
X69257052Y-107748170D01*
X69257051Y-107748169D01*
X69257051Y-107748165D01*
X69257049Y-107748160D01*
X69181635Y-107566092D01*
X69181628Y-107566079D01*
X69072139Y-107402218D01*
X69072136Y-107402214D01*
X68932785Y-107262863D01*
X68932781Y-107262860D01*
X68768920Y-107153371D01*
X68768907Y-107153364D01*
X68586839Y-107077950D01*
X68586829Y-107077947D01*
X68393543Y-107039500D01*
X68393541Y-107039500D01*
X68196459Y-107039500D01*
X68196457Y-107039500D01*
X68003170Y-107077947D01*
X68003160Y-107077950D01*
X67821092Y-107153364D01*
X67821079Y-107153371D01*
X67657218Y-107262860D01*
X67657214Y-107262863D01*
X67517863Y-107402214D01*
X67517860Y-107402218D01*
X67408371Y-107566079D01*
X67408364Y-107566092D01*
X67332950Y-107748160D01*
X67332947Y-107748170D01*
X67294500Y-107941456D01*
X67294500Y-107941459D01*
X67294500Y-108138541D01*
X67294500Y-108138543D01*
X67294499Y-108138543D01*
X50000500Y-108138543D01*
X50000500Y-105598543D01*
X67294499Y-105598543D01*
X67332947Y-105791829D01*
X67332950Y-105791839D01*
X67408364Y-105973907D01*
X67408371Y-105973920D01*
X67517860Y-106137781D01*
X67517863Y-106137785D01*
X67657214Y-106277136D01*
X67657218Y-106277139D01*
X67821079Y-106386628D01*
X67821092Y-106386635D01*
X68003160Y-106462049D01*
X68003165Y-106462051D01*
X68003169Y-106462051D01*
X68003170Y-106462052D01*
X68196456Y-106500500D01*
X68196459Y-106500500D01*
X68393543Y-106500500D01*
X68523582Y-106474632D01*
X68586835Y-106462051D01*
X68768914Y-106386632D01*
X68932782Y-106277139D01*
X69072139Y-106137782D01*
X69181632Y-105973914D01*
X69257051Y-105791835D01*
X69295500Y-105598543D01*
X90999499Y-105598543D01*
X91037947Y-105791829D01*
X91037950Y-105791839D01*
X91113364Y-105973907D01*
X91113371Y-105973920D01*
X91222860Y-106137781D01*
X91222863Y-106137785D01*
X91362214Y-106277136D01*
X91362218Y-106277139D01*
X91526079Y-106386628D01*
X91526092Y-106386635D01*
X91708160Y-106462049D01*
X91708165Y-106462051D01*
X91708169Y-106462051D01*
X91708170Y-106462052D01*
X91901456Y-106500500D01*
X91901459Y-106500500D01*
X92098543Y-106500500D01*
X92228582Y-106474632D01*
X92291835Y-106462051D01*
X92473914Y-106386632D01*
X92637782Y-106277139D01*
X92777139Y-106137782D01*
X92886632Y-105973914D01*
X92962051Y-105791835D01*
X93000500Y-105598541D01*
X93000500Y-105401459D01*
X93000500Y-105401456D01*
X92962052Y-105208170D01*
X92962051Y-105208169D01*
X92962051Y-105208165D01*
X92962049Y-105208160D01*
X92886635Y-105026092D01*
X92886628Y-105026079D01*
X92777139Y-104862218D01*
X92777136Y-104862214D01*
X92637785Y-104722863D01*
X92637781Y-104722860D01*
X92473920Y-104613371D01*
X92473907Y-104613364D01*
X92291839Y-104537950D01*
X92291829Y-104537947D01*
X92098543Y-104499500D01*
X92098541Y-104499500D01*
X91901459Y-104499500D01*
X91901457Y-104499500D01*
X91708170Y-104537947D01*
X91708160Y-104537950D01*
X91526092Y-104613364D01*
X91526079Y-104613371D01*
X91362218Y-104722860D01*
X91362214Y-104722863D01*
X91222863Y-104862214D01*
X91222860Y-104862218D01*
X91113371Y-105026079D01*
X91113364Y-105026092D01*
X91037950Y-105208160D01*
X91037947Y-105208170D01*
X90999500Y-105401456D01*
X90999500Y-105401459D01*
X90999500Y-105598541D01*
X90999500Y-105598543D01*
X90999499Y-105598543D01*
X69295500Y-105598543D01*
X69295500Y-105598541D01*
X69295500Y-105401459D01*
X69295500Y-105401456D01*
X69257052Y-105208170D01*
X69257051Y-105208169D01*
X69257051Y-105208165D01*
X69257049Y-105208160D01*
X69181635Y-105026092D01*
X69181628Y-105026079D01*
X69072139Y-104862218D01*
X69072136Y-104862214D01*
X68932785Y-104722863D01*
X68932781Y-104722860D01*
X68768920Y-104613371D01*
X68768907Y-104613364D01*
X68586839Y-104537950D01*
X68586829Y-104537947D01*
X68393543Y-104499500D01*
X68393541Y-104499500D01*
X68196459Y-104499500D01*
X68196457Y-104499500D01*
X68003170Y-104537947D01*
X68003160Y-104537950D01*
X67821092Y-104613364D01*
X67821079Y-104613371D01*
X67657218Y-104722860D01*
X67657214Y-104722863D01*
X67517863Y-104862214D01*
X67517860Y-104862218D01*
X67408371Y-105026079D01*
X67408364Y-105026092D01*
X67332950Y-105208160D01*
X67332947Y-105208170D01*
X67294500Y-105401456D01*
X67294500Y-105401459D01*
X67294500Y-105598541D01*
X67294500Y-105598543D01*
X67294499Y-105598543D01*
X50000500Y-105598543D01*
X50000500Y-103058543D01*
X67294499Y-103058543D01*
X67332947Y-103251829D01*
X67332950Y-103251839D01*
X67408364Y-103433907D01*
X67408371Y-103433920D01*
X67517860Y-103597781D01*
X67517863Y-103597785D01*
X67657214Y-103737136D01*
X67657218Y-103737139D01*
X67821079Y-103846628D01*
X67821092Y-103846635D01*
X68003160Y-103922049D01*
X68003165Y-103922051D01*
X68003169Y-103922051D01*
X68003170Y-103922052D01*
X68196456Y-103960500D01*
X68196459Y-103960500D01*
X68393543Y-103960500D01*
X68523582Y-103934632D01*
X68586835Y-103922051D01*
X68768914Y-103846632D01*
X68932782Y-103737139D01*
X69072139Y-103597782D01*
X69181632Y-103433914D01*
X69257051Y-103251835D01*
X69295500Y-103058543D01*
X90999499Y-103058543D01*
X91037947Y-103251829D01*
X91037950Y-103251839D01*
X91113364Y-103433907D01*
X91113371Y-103433920D01*
X91222860Y-103597781D01*
X91222863Y-103597785D01*
X91362214Y-103737136D01*
X91362218Y-103737139D01*
X91526079Y-103846628D01*
X91526092Y-103846635D01*
X91708160Y-103922049D01*
X91708165Y-103922051D01*
X91708169Y-103922051D01*
X91708170Y-103922052D01*
X91901456Y-103960500D01*
X91901459Y-103960500D01*
X92098543Y-103960500D01*
X92228582Y-103934632D01*
X92291835Y-103922051D01*
X92473914Y-103846632D01*
X92637782Y-103737139D01*
X92777139Y-103597782D01*
X92886632Y-103433914D01*
X92962051Y-103251835D01*
X93000500Y-103058541D01*
X93000500Y-102861459D01*
X93000500Y-102861456D01*
X92962052Y-102668170D01*
X92962051Y-102668169D01*
X92962051Y-102668165D01*
X92962049Y-102668160D01*
X92886635Y-102486092D01*
X92886628Y-102486079D01*
X92777139Y-102322218D01*
X92777136Y-102322214D01*
X92637785Y-102182863D01*
X92637781Y-102182860D01*
X92473920Y-102073371D01*
X92473907Y-102073364D01*
X92291839Y-101997950D01*
X92291829Y-101997947D01*
X92098543Y-101959500D01*
X92098541Y-101959500D01*
X91901459Y-101959500D01*
X91901457Y-101959500D01*
X91708170Y-101997947D01*
X91708160Y-101997950D01*
X91526092Y-102073364D01*
X91526079Y-102073371D01*
X91362218Y-102182860D01*
X91362214Y-102182863D01*
X91222863Y-102322214D01*
X91222860Y-102322218D01*
X91113371Y-102486079D01*
X91113364Y-102486092D01*
X91037950Y-102668160D01*
X91037947Y-102668170D01*
X90999500Y-102861456D01*
X90999500Y-102861459D01*
X90999500Y-103058541D01*
X90999500Y-103058543D01*
X90999499Y-103058543D01*
X69295500Y-103058543D01*
X69295500Y-103058541D01*
X69295500Y-102861459D01*
X69295500Y-102861456D01*
X69257052Y-102668170D01*
X69257051Y-102668169D01*
X69257051Y-102668165D01*
X69257049Y-102668160D01*
X69181635Y-102486092D01*
X69181628Y-102486079D01*
X69072139Y-102322218D01*
X69072136Y-102322214D01*
X68932785Y-102182863D01*
X68932781Y-102182860D01*
X68768920Y-102073371D01*
X68768907Y-102073364D01*
X68586839Y-101997950D01*
X68586829Y-101997947D01*
X68393543Y-101959500D01*
X68393541Y-101959500D01*
X68196459Y-101959500D01*
X68196457Y-101959500D01*
X68003170Y-101997947D01*
X68003160Y-101997950D01*
X67821092Y-102073364D01*
X67821079Y-102073371D01*
X67657218Y-102182860D01*
X67657214Y-102182863D01*
X67517863Y-102322214D01*
X67517860Y-102322218D01*
X67408371Y-102486079D01*
X67408364Y-102486092D01*
X67332950Y-102668160D01*
X67332947Y-102668170D01*
X67294500Y-102861456D01*
X67294500Y-102861459D01*
X67294500Y-103058541D01*
X67294500Y-103058543D01*
X67294499Y-103058543D01*
X50000500Y-103058543D01*
X50000500Y-100518543D01*
X67294499Y-100518543D01*
X67332947Y-100711829D01*
X67332950Y-100711839D01*
X67408364Y-100893907D01*
X67408371Y-100893920D01*
X67517860Y-101057781D01*
X67517863Y-101057785D01*
X67657214Y-101197136D01*
X67657218Y-101197139D01*
X67821079Y-101306628D01*
X67821092Y-101306635D01*
X68003160Y-101382049D01*
X68003165Y-101382051D01*
X68003169Y-101382051D01*
X68003170Y-101382052D01*
X68196456Y-101420500D01*
X68196459Y-101420500D01*
X68393543Y-101420500D01*
X68523582Y-101394632D01*
X68586835Y-101382051D01*
X68768914Y-101306632D01*
X68932782Y-101197139D01*
X69072139Y-101057782D01*
X69181632Y-100893914D01*
X69257051Y-100711835D01*
X69295500Y-100518543D01*
X90999499Y-100518543D01*
X91037947Y-100711829D01*
X91037950Y-100711839D01*
X91113364Y-100893907D01*
X91113371Y-100893920D01*
X91222860Y-101057781D01*
X91222863Y-101057785D01*
X91362214Y-101197136D01*
X91362218Y-101197139D01*
X91526079Y-101306628D01*
X91526092Y-101306635D01*
X91708160Y-101382049D01*
X91708165Y-101382051D01*
X91708169Y-101382051D01*
X91708170Y-101382052D01*
X91901456Y-101420500D01*
X91901459Y-101420500D01*
X92098543Y-101420500D01*
X92228582Y-101394632D01*
X92291835Y-101382051D01*
X92473914Y-101306632D01*
X92637782Y-101197139D01*
X92777139Y-101057782D01*
X92886632Y-100893914D01*
X92962051Y-100711835D01*
X93000500Y-100518541D01*
X93000500Y-100321459D01*
X93000500Y-100321456D01*
X92962052Y-100128170D01*
X92962051Y-100128169D01*
X92962051Y-100128165D01*
X92962049Y-100128160D01*
X92886635Y-99946092D01*
X92886628Y-99946079D01*
X92777139Y-99782218D01*
X92777136Y-99782214D01*
X92637785Y-99642863D01*
X92637781Y-99642860D01*
X92473920Y-99533371D01*
X92473907Y-99533364D01*
X92291839Y-99457950D01*
X92291829Y-99457947D01*
X92098543Y-99419500D01*
X92098541Y-99419500D01*
X91901459Y-99419500D01*
X91901457Y-99419500D01*
X91708170Y-99457947D01*
X91708160Y-99457950D01*
X91526092Y-99533364D01*
X91526079Y-99533371D01*
X91362218Y-99642860D01*
X91362214Y-99642863D01*
X91222863Y-99782214D01*
X91222860Y-99782218D01*
X91113371Y-99946079D01*
X91113364Y-99946092D01*
X91037950Y-100128160D01*
X91037947Y-100128170D01*
X90999500Y-100321456D01*
X90999500Y-100321459D01*
X90999500Y-100518541D01*
X90999500Y-100518543D01*
X90999499Y-100518543D01*
X69295500Y-100518543D01*
X69295500Y-100518541D01*
X69295500Y-100321459D01*
X69295500Y-100321456D01*
X69257052Y-100128170D01*
X69257051Y-100128169D01*
X69257051Y-100128165D01*
X69257049Y-100128160D01*
X69181635Y-99946092D01*
X69181628Y-99946079D01*
X69072139Y-99782218D01*
X69072136Y-99782214D01*
X68932785Y-99642863D01*
X68932781Y-99642860D01*
X68768920Y-99533371D01*
X68768907Y-99533364D01*
X68586839Y-99457950D01*
X68586829Y-99457947D01*
X68393543Y-99419500D01*
X68393541Y-99419500D01*
X68196459Y-99419500D01*
X68196457Y-99419500D01*
X68003170Y-99457947D01*
X68003160Y-99457950D01*
X67821092Y-99533364D01*
X67821079Y-99533371D01*
X67657218Y-99642860D01*
X67657214Y-99642863D01*
X67517863Y-99782214D01*
X67517860Y-99782218D01*
X67408371Y-99946079D01*
X67408364Y-99946092D01*
X67332950Y-100128160D01*
X67332947Y-100128170D01*
X67294500Y-100321456D01*
X67294500Y-100321459D01*
X67294500Y-100518541D01*
X67294500Y-100518543D01*
X67294499Y-100518543D01*
X50000500Y-100518543D01*
X50000500Y-97978543D01*
X67294499Y-97978543D01*
X67332947Y-98171829D01*
X67332950Y-98171839D01*
X67408364Y-98353907D01*
X67408371Y-98353920D01*
X67517860Y-98517781D01*
X67517863Y-98517785D01*
X67657214Y-98657136D01*
X67657218Y-98657139D01*
X67821079Y-98766628D01*
X67821092Y-98766635D01*
X68003160Y-98842049D01*
X68003165Y-98842051D01*
X68003169Y-98842051D01*
X68003170Y-98842052D01*
X68196456Y-98880500D01*
X68196459Y-98880500D01*
X68393543Y-98880500D01*
X68523582Y-98854632D01*
X68586835Y-98842051D01*
X68768914Y-98766632D01*
X68932782Y-98657139D01*
X69072139Y-98517782D01*
X69181632Y-98353914D01*
X69257051Y-98171835D01*
X69295500Y-97978543D01*
X90999499Y-97978543D01*
X91037947Y-98171829D01*
X91037950Y-98171839D01*
X91113364Y-98353907D01*
X91113371Y-98353920D01*
X91222860Y-98517781D01*
X91222863Y-98517785D01*
X91362214Y-98657136D01*
X91362218Y-98657139D01*
X91526079Y-98766628D01*
X91526092Y-98766635D01*
X91708160Y-98842049D01*
X91708165Y-98842051D01*
X91708169Y-98842051D01*
X91708170Y-98842052D01*
X91901456Y-98880500D01*
X91901459Y-98880500D01*
X92098543Y-98880500D01*
X92228582Y-98854632D01*
X92291835Y-98842051D01*
X92473914Y-98766632D01*
X92637782Y-98657139D01*
X92777139Y-98517782D01*
X92886632Y-98353914D01*
X92962051Y-98171835D01*
X93000500Y-97978541D01*
X93000500Y-97781459D01*
X93000500Y-97781456D01*
X92962052Y-97588170D01*
X92962051Y-97588169D01*
X92962051Y-97588165D01*
X92962049Y-97588160D01*
X92886635Y-97406092D01*
X92886628Y-97406079D01*
X92777139Y-97242218D01*
X92777136Y-97242214D01*
X92637785Y-97102863D01*
X92637781Y-97102860D01*
X92473920Y-96993371D01*
X92473907Y-96993364D01*
X92291839Y-96917950D01*
X92291829Y-96917947D01*
X92098543Y-96879500D01*
X92098541Y-96879500D01*
X91901459Y-96879500D01*
X91901457Y-96879500D01*
X91708170Y-96917947D01*
X91708160Y-96917950D01*
X91526092Y-96993364D01*
X91526079Y-96993371D01*
X91362218Y-97102860D01*
X91362214Y-97102863D01*
X91222863Y-97242214D01*
X91222860Y-97242218D01*
X91113371Y-97406079D01*
X91113364Y-97406092D01*
X91037950Y-97588160D01*
X91037947Y-97588170D01*
X90999500Y-97781456D01*
X90999500Y-97781459D01*
X90999500Y-97978541D01*
X90999500Y-97978543D01*
X90999499Y-97978543D01*
X69295500Y-97978543D01*
X69295500Y-97978541D01*
X69295500Y-97781459D01*
X69295500Y-97781456D01*
X69257052Y-97588170D01*
X69257051Y-97588169D01*
X69257051Y-97588165D01*
X69257049Y-97588160D01*
X69181635Y-97406092D01*
X69181628Y-97406079D01*
X69072139Y-97242218D01*
X69072136Y-97242214D01*
X68932785Y-97102863D01*
X68932781Y-97102860D01*
X68768920Y-96993371D01*
X68768907Y-96993364D01*
X68586839Y-96917950D01*
X68586829Y-96917947D01*
X68393543Y-96879500D01*
X68393541Y-96879500D01*
X68196459Y-96879500D01*
X68196457Y-96879500D01*
X68003170Y-96917947D01*
X68003160Y-96917950D01*
X67821092Y-96993364D01*
X67821079Y-96993371D01*
X67657218Y-97102860D01*
X67657214Y-97102863D01*
X67517863Y-97242214D01*
X67517860Y-97242218D01*
X67408371Y-97406079D01*
X67408364Y-97406092D01*
X67332950Y-97588160D01*
X67332947Y-97588170D01*
X67294500Y-97781456D01*
X67294500Y-97781459D01*
X67294500Y-97978541D01*
X67294500Y-97978543D01*
X67294499Y-97978543D01*
X50000500Y-97978543D01*
X50000500Y-86301577D01*
X50649500Y-86301577D01*
X50649500Y-86498422D01*
X50680290Y-86692826D01*
X50741117Y-86880029D01*
X50795156Y-86986086D01*
X50830476Y-87055405D01*
X50946172Y-87214646D01*
X51085354Y-87353828D01*
X51198523Y-87436051D01*
X51241188Y-87491380D01*
X51247167Y-87560994D01*
X51214561Y-87622789D01*
X51194530Y-87639469D01*
X51191495Y-87641496D01*
X51158234Y-87691275D01*
X51158231Y-87691282D01*
X51149500Y-87735177D01*
X51149500Y-87735180D01*
X51149500Y-89264820D01*
X51149500Y-89264822D01*
X51149499Y-89264822D01*
X51158231Y-89308717D01*
X51158232Y-89308721D01*
X51158233Y-89308722D01*
X51191496Y-89358504D01*
X51241278Y-89391767D01*
X51241281Y-89391767D01*
X51241282Y-89391768D01*
X51285177Y-89400500D01*
X51727920Y-89400500D01*
X51794959Y-89420185D01*
X51840714Y-89472989D01*
X51850658Y-89542147D01*
X51821633Y-89605703D01*
X51775372Y-89639060D01*
X51759134Y-89645786D01*
X51623458Y-89701983D01*
X51623446Y-89701990D01*
X51475965Y-89800535D01*
X51475961Y-89800538D01*
X51350538Y-89925961D01*
X51350535Y-89925965D01*
X51251990Y-90073446D01*
X51251983Y-90073459D01*
X51184106Y-90237332D01*
X51184103Y-90237341D01*
X51149500Y-90411304D01*
X51149500Y-90588695D01*
X51184103Y-90762658D01*
X51184106Y-90762667D01*
X51251983Y-90926540D01*
X51251990Y-90926553D01*
X51350535Y-91074034D01*
X51350538Y-91074038D01*
X51475961Y-91199461D01*
X51475965Y-91199464D01*
X51623446Y-91298009D01*
X51623459Y-91298016D01*
X51746363Y-91348923D01*
X51787334Y-91365894D01*
X51807594Y-91369924D01*
X51850118Y-91378383D01*
X51912028Y-91410768D01*
X51946603Y-91471484D01*
X51942863Y-91541253D01*
X51901996Y-91597925D01*
X51850118Y-91621617D01*
X51787340Y-91634104D01*
X51787332Y-91634106D01*
X51623459Y-91701983D01*
X51623446Y-91701990D01*
X51475965Y-91800535D01*
X51475961Y-91800538D01*
X51350538Y-91925961D01*
X51350535Y-91925965D01*
X51251990Y-92073446D01*
X51251983Y-92073459D01*
X51184106Y-92237332D01*
X51184103Y-92237341D01*
X51149500Y-92411304D01*
X51149500Y-92588695D01*
X51184103Y-92762658D01*
X51184106Y-92762667D01*
X51251983Y-92926540D01*
X51251990Y-92926553D01*
X51350535Y-93074034D01*
X51350538Y-93074038D01*
X51475960Y-93199460D01*
X51475963Y-93199462D01*
X51475965Y-93199464D01*
X51488410Y-93207779D01*
X51533215Y-93261390D01*
X51541924Y-93330715D01*
X51511770Y-93393743D01*
X51457840Y-93428812D01*
X51419974Y-93441115D01*
X51244594Y-93530476D01*
X51180373Y-93577136D01*
X51085354Y-93646172D01*
X51085352Y-93646174D01*
X51085351Y-93646174D01*
X50946174Y-93785351D01*
X50946174Y-93785352D01*
X50946172Y-93785354D01*
X50935168Y-93800500D01*
X50830476Y-93944594D01*
X50741117Y-94119970D01*
X50680290Y-94307173D01*
X50649500Y-94501577D01*
X50649500Y-94698422D01*
X50680290Y-94892826D01*
X50741117Y-95080029D01*
X50791583Y-95179073D01*
X50830476Y-95255405D01*
X50946172Y-95414646D01*
X51085354Y-95553828D01*
X51244595Y-95669524D01*
X51327455Y-95711743D01*
X51419970Y-95758882D01*
X51419972Y-95758882D01*
X51419975Y-95758884D01*
X51520317Y-95791487D01*
X51607173Y-95819709D01*
X51801578Y-95850500D01*
X51801583Y-95850500D01*
X53298422Y-95850500D01*
X53492826Y-95819709D01*
X53680025Y-95758884D01*
X53855405Y-95669524D01*
X54014646Y-95553828D01*
X54129931Y-95438543D01*
X67294499Y-95438543D01*
X67332947Y-95631829D01*
X67332950Y-95631839D01*
X67408364Y-95813907D01*
X67408371Y-95813920D01*
X67517860Y-95977781D01*
X67517863Y-95977785D01*
X67657214Y-96117136D01*
X67657218Y-96117139D01*
X67821079Y-96226628D01*
X67821092Y-96226635D01*
X68003160Y-96302049D01*
X68003165Y-96302051D01*
X68003169Y-96302051D01*
X68003170Y-96302052D01*
X68196456Y-96340500D01*
X68196459Y-96340500D01*
X68393543Y-96340500D01*
X68523582Y-96314632D01*
X68586835Y-96302051D01*
X68768914Y-96226632D01*
X68932782Y-96117139D01*
X69072139Y-95977782D01*
X69181632Y-95813914D01*
X69257051Y-95631835D01*
X69295500Y-95438543D01*
X90999499Y-95438543D01*
X91037947Y-95631829D01*
X91037950Y-95631839D01*
X91113364Y-95813907D01*
X91113371Y-95813920D01*
X91222860Y-95977781D01*
X91222863Y-95977785D01*
X91362214Y-96117136D01*
X91362218Y-96117139D01*
X91526079Y-96226628D01*
X91526092Y-96226635D01*
X91708160Y-96302049D01*
X91708165Y-96302051D01*
X91708169Y-96302051D01*
X91708170Y-96302052D01*
X91901456Y-96340500D01*
X91901459Y-96340500D01*
X92098543Y-96340500D01*
X92228582Y-96314632D01*
X92291835Y-96302051D01*
X92473914Y-96226632D01*
X92637782Y-96117139D01*
X92777139Y-95977782D01*
X92886632Y-95813914D01*
X92962051Y-95631835D01*
X93000500Y-95438541D01*
X93000500Y-95241459D01*
X93000500Y-95241456D01*
X92962052Y-95048170D01*
X92962051Y-95048169D01*
X92962051Y-95048165D01*
X92897708Y-94892826D01*
X92886635Y-94866092D01*
X92886628Y-94866079D01*
X92777139Y-94702218D01*
X92777136Y-94702214D01*
X92637785Y-94562863D01*
X92637781Y-94562860D01*
X92473920Y-94453371D01*
X92473907Y-94453364D01*
X92291839Y-94377950D01*
X92291829Y-94377947D01*
X92098543Y-94339500D01*
X92098541Y-94339500D01*
X91901459Y-94339500D01*
X91901457Y-94339500D01*
X91708170Y-94377947D01*
X91708160Y-94377950D01*
X91526092Y-94453364D01*
X91526079Y-94453371D01*
X91362218Y-94562860D01*
X91362214Y-94562863D01*
X91222863Y-94702214D01*
X91222860Y-94702218D01*
X91113371Y-94866079D01*
X91113364Y-94866092D01*
X91037950Y-95048160D01*
X91037947Y-95048170D01*
X90999500Y-95241456D01*
X90999500Y-95241459D01*
X90999500Y-95438541D01*
X90999500Y-95438543D01*
X90999499Y-95438543D01*
X69295500Y-95438543D01*
X69295500Y-95438541D01*
X69295500Y-95241459D01*
X69295500Y-95241456D01*
X69257052Y-95048170D01*
X69257051Y-95048169D01*
X69257051Y-95048165D01*
X69192708Y-94892826D01*
X69181635Y-94866092D01*
X69181628Y-94866079D01*
X69072139Y-94702218D01*
X69072136Y-94702214D01*
X68932785Y-94562863D01*
X68932781Y-94562860D01*
X68768920Y-94453371D01*
X68768907Y-94453364D01*
X68586839Y-94377950D01*
X68586829Y-94377947D01*
X68393543Y-94339500D01*
X68393541Y-94339500D01*
X68196459Y-94339500D01*
X68196457Y-94339500D01*
X68003170Y-94377947D01*
X68003160Y-94377950D01*
X67821092Y-94453364D01*
X67821079Y-94453371D01*
X67657218Y-94562860D01*
X67657214Y-94562863D01*
X67517863Y-94702214D01*
X67517860Y-94702218D01*
X67408371Y-94866079D01*
X67408364Y-94866092D01*
X67332950Y-95048160D01*
X67332947Y-95048170D01*
X67294500Y-95241456D01*
X67294500Y-95241459D01*
X67294500Y-95438541D01*
X67294500Y-95438543D01*
X67294499Y-95438543D01*
X54129931Y-95438543D01*
X54153828Y-95414646D01*
X54269524Y-95255405D01*
X54358884Y-95080025D01*
X54419709Y-94892826D01*
X54423945Y-94866079D01*
X54450500Y-94698422D01*
X54450500Y-94501577D01*
X54419709Y-94307173D01*
X54358882Y-94119970D01*
X54269523Y-93944594D01*
X54153828Y-93785354D01*
X54014646Y-93646172D01*
X53855405Y-93530476D01*
X53680030Y-93441118D01*
X53680027Y-93441117D01*
X53680025Y-93441116D01*
X53642157Y-93428812D01*
X53584485Y-93389374D01*
X53557287Y-93325015D01*
X53569202Y-93256169D01*
X53611591Y-93207778D01*
X53624035Y-93199464D01*
X53749464Y-93074035D01*
X53848013Y-92926547D01*
X53859613Y-92898543D01*
X67294499Y-92898543D01*
X67332947Y-93091829D01*
X67332950Y-93091839D01*
X67408364Y-93273907D01*
X67408371Y-93273920D01*
X67517860Y-93437781D01*
X67517863Y-93437785D01*
X67657214Y-93577136D01*
X67657218Y-93577139D01*
X67821079Y-93686628D01*
X67821092Y-93686635D01*
X68003160Y-93762049D01*
X68003165Y-93762051D01*
X68003169Y-93762051D01*
X68003170Y-93762052D01*
X68196456Y-93800500D01*
X68196459Y-93800500D01*
X68393543Y-93800500D01*
X68523582Y-93774632D01*
X68586835Y-93762051D01*
X68768914Y-93686632D01*
X68932782Y-93577139D01*
X69072139Y-93437782D01*
X69181632Y-93273914D01*
X69257051Y-93091835D01*
X69289928Y-92926553D01*
X69295500Y-92898543D01*
X90999499Y-92898543D01*
X91037947Y-93091829D01*
X91037950Y-93091839D01*
X91113364Y-93273907D01*
X91113371Y-93273920D01*
X91222860Y-93437781D01*
X91222863Y-93437785D01*
X91362214Y-93577136D01*
X91362218Y-93577139D01*
X91526079Y-93686628D01*
X91526092Y-93686635D01*
X91708160Y-93762049D01*
X91708165Y-93762051D01*
X91708169Y-93762051D01*
X91708170Y-93762052D01*
X91901456Y-93800500D01*
X91901459Y-93800500D01*
X92098543Y-93800500D01*
X92228582Y-93774632D01*
X92291835Y-93762051D01*
X92473914Y-93686632D01*
X92637782Y-93577139D01*
X92777139Y-93437782D01*
X92886632Y-93273914D01*
X92962051Y-93091835D01*
X92994928Y-92926553D01*
X93000500Y-92898543D01*
X93000500Y-92701456D01*
X92962052Y-92508170D01*
X92962051Y-92508169D01*
X92962051Y-92508165D01*
X92962049Y-92508160D01*
X92886635Y-92326092D01*
X92886628Y-92326079D01*
X92777139Y-92162218D01*
X92777136Y-92162214D01*
X92637785Y-92022863D01*
X92637781Y-92022860D01*
X92473920Y-91913371D01*
X92473907Y-91913364D01*
X92291839Y-91837950D01*
X92291829Y-91837947D01*
X92098543Y-91799500D01*
X92098541Y-91799500D01*
X91901459Y-91799500D01*
X91901457Y-91799500D01*
X91708170Y-91837947D01*
X91708160Y-91837950D01*
X91526092Y-91913364D01*
X91526079Y-91913371D01*
X91362218Y-92022860D01*
X91362214Y-92022863D01*
X91222863Y-92162214D01*
X91222860Y-92162218D01*
X91113371Y-92326079D01*
X91113364Y-92326092D01*
X91037950Y-92508160D01*
X91037947Y-92508170D01*
X90999500Y-92701456D01*
X90999500Y-92701459D01*
X90999500Y-92898541D01*
X90999500Y-92898543D01*
X90999499Y-92898543D01*
X69295500Y-92898543D01*
X69295500Y-92701456D01*
X69257052Y-92508170D01*
X69257051Y-92508169D01*
X69257051Y-92508165D01*
X69257049Y-92508160D01*
X69181635Y-92326092D01*
X69181628Y-92326079D01*
X69072139Y-92162218D01*
X69072136Y-92162214D01*
X68932785Y-92022863D01*
X68932781Y-92022860D01*
X68768920Y-91913371D01*
X68768907Y-91913364D01*
X68586839Y-91837950D01*
X68586829Y-91837947D01*
X68393543Y-91799500D01*
X68393541Y-91799500D01*
X68196459Y-91799500D01*
X68196457Y-91799500D01*
X68003170Y-91837947D01*
X68003160Y-91837950D01*
X67821092Y-91913364D01*
X67821079Y-91913371D01*
X67657218Y-92022860D01*
X67657214Y-92022863D01*
X67517863Y-92162214D01*
X67517860Y-92162218D01*
X67408371Y-92326079D01*
X67408364Y-92326092D01*
X67332950Y-92508160D01*
X67332947Y-92508170D01*
X67294500Y-92701456D01*
X67294500Y-92701459D01*
X67294500Y-92898541D01*
X67294500Y-92898543D01*
X67294499Y-92898543D01*
X53859613Y-92898543D01*
X53915894Y-92762666D01*
X53934093Y-92671175D01*
X53950500Y-92588693D01*
X53950500Y-92411306D01*
X53950499Y-92411304D01*
X53915896Y-92237341D01*
X53915893Y-92237332D01*
X53848016Y-92073459D01*
X53848009Y-92073446D01*
X53749464Y-91925965D01*
X53749461Y-91925961D01*
X53624038Y-91800538D01*
X53624034Y-91800535D01*
X53476553Y-91701990D01*
X53476540Y-91701983D01*
X53312667Y-91634106D01*
X53312658Y-91634103D01*
X53249882Y-91621617D01*
X53187971Y-91589232D01*
X53153397Y-91528517D01*
X53157136Y-91458747D01*
X53198003Y-91402075D01*
X53249882Y-91378383D01*
X53312658Y-91365896D01*
X53312661Y-91365894D01*
X53312666Y-91365894D01*
X53476547Y-91298013D01*
X53624035Y-91199464D01*
X53749464Y-91074035D01*
X53848013Y-90926547D01*
X53915894Y-90762666D01*
X53926858Y-90707550D01*
X53950499Y-90588695D01*
X53950500Y-90588693D01*
X53950500Y-90411306D01*
X53950499Y-90411304D01*
X53915896Y-90237341D01*
X53915894Y-90237338D01*
X53915894Y-90237334D01*
X53861596Y-90106246D01*
X53848016Y-90073459D01*
X53848009Y-90073446D01*
X53749464Y-89925965D01*
X53749461Y-89925961D01*
X53624038Y-89800538D01*
X53624034Y-89800535D01*
X53476553Y-89701990D01*
X53476541Y-89701983D01*
X53342458Y-89646446D01*
X53324627Y-89639060D01*
X53270224Y-89595221D01*
X53248159Y-89528927D01*
X53265438Y-89461227D01*
X53316575Y-89413617D01*
X53372080Y-89400500D01*
X53814822Y-89400500D01*
X53858717Y-89391768D01*
X53858717Y-89391767D01*
X53858722Y-89391767D01*
X53908504Y-89358504D01*
X53941767Y-89308722D01*
X53950500Y-89264820D01*
X53950500Y-87735180D01*
X53950500Y-87735177D01*
X53941768Y-87691282D01*
X53941767Y-87691278D01*
X53941765Y-87691275D01*
X53908504Y-87641496D01*
X53891018Y-87629812D01*
X53879782Y-87616560D01*
X53878536Y-87613753D01*
X66945000Y-87613753D01*
X66945000Y-87826246D01*
X66978242Y-88036127D01*
X66978242Y-88036130D01*
X67043904Y-88238217D01*
X67140375Y-88427550D01*
X67179728Y-88481716D01*
X67812037Y-87849408D01*
X67829075Y-87912993D01*
X67894901Y-88027007D01*
X67987993Y-88120099D01*
X68102007Y-88185925D01*
X68165590Y-88202962D01*
X67533282Y-88835269D01*
X67533282Y-88835270D01*
X67587449Y-88874624D01*
X67776782Y-88971095D01*
X67978865Y-89036755D01*
X68037587Y-89046056D01*
X68100722Y-89075985D01*
X68137654Y-89135297D01*
X68136656Y-89205159D01*
X68098047Y-89263392D01*
X68042384Y-89290147D01*
X68003167Y-89297948D01*
X68003160Y-89297950D01*
X67821092Y-89373364D01*
X67821079Y-89373371D01*
X67657218Y-89482860D01*
X67657214Y-89482863D01*
X67517863Y-89622214D01*
X67517860Y-89622218D01*
X67408371Y-89786079D01*
X67408364Y-89786092D01*
X67332950Y-89968160D01*
X67332947Y-89968170D01*
X67294500Y-90161456D01*
X67294500Y-90161459D01*
X67294500Y-90358541D01*
X67294500Y-90358543D01*
X67294499Y-90358543D01*
X67332947Y-90551829D01*
X67332950Y-90551839D01*
X67408364Y-90733907D01*
X67408371Y-90733920D01*
X67517860Y-90897781D01*
X67517863Y-90897785D01*
X67657214Y-91037136D01*
X67657218Y-91037139D01*
X67821079Y-91146628D01*
X67821092Y-91146635D01*
X68003160Y-91222049D01*
X68003165Y-91222051D01*
X68003169Y-91222051D01*
X68003170Y-91222052D01*
X68196456Y-91260500D01*
X68196459Y-91260500D01*
X68393543Y-91260500D01*
X68523582Y-91234632D01*
X68586835Y-91222051D01*
X68727655Y-91163721D01*
X68768907Y-91146635D01*
X68768907Y-91146634D01*
X68768914Y-91146632D01*
X68932782Y-91037139D01*
X69072139Y-90897782D01*
X69181632Y-90733914D01*
X69257051Y-90551835D01*
X69285004Y-90411309D01*
X69295500Y-90358543D01*
X90999499Y-90358543D01*
X91037947Y-90551829D01*
X91037950Y-90551839D01*
X91113364Y-90733907D01*
X91113371Y-90733920D01*
X91222860Y-90897781D01*
X91222863Y-90897785D01*
X91362214Y-91037136D01*
X91362218Y-91037139D01*
X91526079Y-91146628D01*
X91526092Y-91146635D01*
X91708160Y-91222049D01*
X91708165Y-91222051D01*
X91708169Y-91222051D01*
X91708170Y-91222052D01*
X91901456Y-91260500D01*
X91901459Y-91260500D01*
X92098543Y-91260500D01*
X92228582Y-91234632D01*
X92291835Y-91222051D01*
X92432655Y-91163721D01*
X92473907Y-91146635D01*
X92473907Y-91146634D01*
X92473914Y-91146632D01*
X92637782Y-91037139D01*
X92637785Y-91037136D01*
X92694592Y-90980330D01*
X92777136Y-90897785D01*
X92777139Y-90897782D01*
X92886632Y-90733914D01*
X92962051Y-90551835D01*
X92990004Y-90411309D01*
X93000500Y-90358543D01*
X93000500Y-90161456D01*
X92962052Y-89968170D01*
X92962051Y-89968169D01*
X92962051Y-89968165D01*
X92931229Y-89893753D01*
X100650000Y-89893753D01*
X100650000Y-90106246D01*
X100683242Y-90316127D01*
X100683242Y-90316130D01*
X100748904Y-90518217D01*
X100845375Y-90707550D01*
X100884728Y-90761716D01*
X101517037Y-90129408D01*
X101534075Y-90192993D01*
X101599901Y-90307007D01*
X101692993Y-90400099D01*
X101807007Y-90465925D01*
X101870590Y-90482962D01*
X101238282Y-91115269D01*
X101238282Y-91115270D01*
X101292449Y-91154624D01*
X101481782Y-91251095D01*
X101683870Y-91316757D01*
X101893754Y-91350000D01*
X102106246Y-91350000D01*
X102316127Y-91316757D01*
X102316130Y-91316757D01*
X102518217Y-91251095D01*
X102707554Y-91154622D01*
X102761716Y-91115270D01*
X102761717Y-91115270D01*
X102129408Y-90482962D01*
X102192993Y-90465925D01*
X102307007Y-90400099D01*
X102400099Y-90307007D01*
X102465925Y-90192993D01*
X102482962Y-90129409D01*
X103115270Y-90761717D01*
X103115270Y-90761716D01*
X103154622Y-90707554D01*
X103251095Y-90518217D01*
X103316757Y-90316130D01*
X103316757Y-90316127D01*
X103350000Y-90106246D01*
X103350000Y-89893753D01*
X103316757Y-89683872D01*
X103316757Y-89683869D01*
X103251095Y-89481782D01*
X103154624Y-89292449D01*
X103115270Y-89238282D01*
X103115269Y-89238282D01*
X102482962Y-89870590D01*
X102465925Y-89807007D01*
X102400099Y-89692993D01*
X102307007Y-89599901D01*
X102192993Y-89534075D01*
X102129409Y-89517037D01*
X102761716Y-88884728D01*
X102707550Y-88845375D01*
X102518217Y-88748904D01*
X102316128Y-88683242D01*
X102257411Y-88673942D01*
X102194276Y-88644012D01*
X102157345Y-88584701D01*
X102158343Y-88514838D01*
X102196953Y-88456606D01*
X102252615Y-88429852D01*
X102291835Y-88422051D01*
X102473914Y-88346632D01*
X102637782Y-88237139D01*
X102777139Y-88097782D01*
X102886632Y-87933914D01*
X102962051Y-87751835D01*
X102990616Y-87608233D01*
X103000500Y-87558543D01*
X103000500Y-87361456D01*
X102962052Y-87168170D01*
X102962051Y-87168169D01*
X102962051Y-87168165D01*
X102897548Y-87012439D01*
X102886635Y-86986092D01*
X102886628Y-86986079D01*
X102777139Y-86822218D01*
X102777136Y-86822214D01*
X102637785Y-86682863D01*
X102637781Y-86682860D01*
X102473920Y-86573371D01*
X102473907Y-86573364D01*
X102291839Y-86497950D01*
X102291829Y-86497947D01*
X102098543Y-86459500D01*
X102098541Y-86459500D01*
X101901459Y-86459500D01*
X101901457Y-86459500D01*
X101708170Y-86497947D01*
X101708160Y-86497950D01*
X101526092Y-86573364D01*
X101526079Y-86573371D01*
X101362218Y-86682860D01*
X101362214Y-86682863D01*
X101222863Y-86822214D01*
X101222860Y-86822218D01*
X101113371Y-86986079D01*
X101113364Y-86986092D01*
X101037950Y-87168160D01*
X101037947Y-87168170D01*
X100999500Y-87361456D01*
X100999500Y-87361459D01*
X100999500Y-87558541D01*
X100999500Y-87558543D01*
X100999499Y-87558543D01*
X101037947Y-87751829D01*
X101037950Y-87751839D01*
X101113364Y-87933907D01*
X101113371Y-87933920D01*
X101222860Y-88097781D01*
X101222863Y-88097785D01*
X101362214Y-88237136D01*
X101362218Y-88237139D01*
X101526079Y-88346628D01*
X101526092Y-88346635D01*
X101708160Y-88422049D01*
X101708165Y-88422051D01*
X101728491Y-88426094D01*
X101747381Y-88429852D01*
X101809292Y-88462237D01*
X101843866Y-88522952D01*
X101840127Y-88592722D01*
X101799261Y-88649394D01*
X101742589Y-88673942D01*
X101683870Y-88683242D01*
X101683869Y-88683242D01*
X101481782Y-88748904D01*
X101292439Y-88845380D01*
X101238282Y-88884727D01*
X101238282Y-88884728D01*
X101870591Y-89517037D01*
X101807007Y-89534075D01*
X101692993Y-89599901D01*
X101599901Y-89692993D01*
X101534075Y-89807007D01*
X101517037Y-89870591D01*
X100884728Y-89238282D01*
X100884727Y-89238282D01*
X100845380Y-89292439D01*
X100748904Y-89481782D01*
X100683242Y-89683869D01*
X100683242Y-89683872D01*
X100650000Y-89893753D01*
X92931229Y-89893753D01*
X92895298Y-89807007D01*
X92886635Y-89786092D01*
X92886628Y-89786079D01*
X92777139Y-89622218D01*
X92777136Y-89622214D01*
X92637785Y-89482863D01*
X92637781Y-89482860D01*
X92473920Y-89373371D01*
X92473907Y-89373364D01*
X92291839Y-89297950D01*
X92291829Y-89297947D01*
X92098543Y-89259500D01*
X92098541Y-89259500D01*
X91901459Y-89259500D01*
X91901457Y-89259500D01*
X91708170Y-89297947D01*
X91708160Y-89297950D01*
X91526092Y-89373364D01*
X91526079Y-89373371D01*
X91362218Y-89482860D01*
X91362214Y-89482863D01*
X91222863Y-89622214D01*
X91222860Y-89622218D01*
X91113371Y-89786079D01*
X91113364Y-89786092D01*
X91037950Y-89968160D01*
X91037947Y-89968170D01*
X90999500Y-90161456D01*
X90999500Y-90161459D01*
X90999500Y-90358541D01*
X90999500Y-90358543D01*
X90999499Y-90358543D01*
X69295500Y-90358543D01*
X69295500Y-90161456D01*
X69257052Y-89968170D01*
X69257051Y-89968169D01*
X69257051Y-89968165D01*
X69243866Y-89936334D01*
X69181635Y-89786092D01*
X69181628Y-89786079D01*
X69072139Y-89622218D01*
X69072136Y-89622214D01*
X68932785Y-89482863D01*
X68932781Y-89482860D01*
X68768920Y-89373371D01*
X68768907Y-89373364D01*
X68586839Y-89297950D01*
X68586830Y-89297947D01*
X68547616Y-89290147D01*
X68485705Y-89257761D01*
X68451132Y-89197045D01*
X68454873Y-89127275D01*
X68495740Y-89070604D01*
X68552412Y-89046056D01*
X68611134Y-89036755D01*
X68813217Y-88971095D01*
X69002554Y-88874622D01*
X69056716Y-88835270D01*
X69056717Y-88835270D01*
X68424408Y-88202962D01*
X68487993Y-88185925D01*
X68602007Y-88120099D01*
X68695099Y-88027007D01*
X68760925Y-87912993D01*
X68777962Y-87849408D01*
X69410270Y-88481717D01*
X69410270Y-88481716D01*
X69449622Y-88427554D01*
X69546095Y-88238217D01*
X69611757Y-88036130D01*
X69611757Y-88036127D01*
X69645000Y-87826246D01*
X69645000Y-87613753D01*
X69611757Y-87403872D01*
X69611757Y-87403869D01*
X69546095Y-87201782D01*
X69449624Y-87012449D01*
X69410270Y-86958282D01*
X69410269Y-86958282D01*
X68777962Y-87590590D01*
X68760925Y-87527007D01*
X68695099Y-87412993D01*
X68602007Y-87319901D01*
X68487993Y-87254075D01*
X68424409Y-87237037D01*
X69056716Y-86604728D01*
X69002550Y-86565375D01*
X68813217Y-86468904D01*
X68611128Y-86403242D01*
X68552411Y-86393942D01*
X68489276Y-86364012D01*
X68452345Y-86304701D01*
X68453343Y-86234838D01*
X68491953Y-86176606D01*
X68547615Y-86149852D01*
X68586835Y-86142051D01*
X68768914Y-86066632D01*
X68932782Y-85957139D01*
X69072139Y-85817782D01*
X69181632Y-85653914D01*
X69257051Y-85471835D01*
X69276712Y-85372993D01*
X69295500Y-85278543D01*
X69295500Y-85081465D01*
X69295500Y-85081459D01*
X69293967Y-85073753D01*
X90650000Y-85073753D01*
X90650000Y-85286246D01*
X90683242Y-85496127D01*
X90683242Y-85496130D01*
X90748904Y-85698217D01*
X90845375Y-85887550D01*
X90884728Y-85941716D01*
X91517037Y-85309408D01*
X91534075Y-85372993D01*
X91599901Y-85487007D01*
X91692993Y-85580099D01*
X91807007Y-85645925D01*
X91870590Y-85662962D01*
X91238282Y-86295269D01*
X91238282Y-86295270D01*
X91292449Y-86334624D01*
X91481782Y-86431095D01*
X91683865Y-86496755D01*
X91742587Y-86506056D01*
X91805722Y-86535985D01*
X91842654Y-86595297D01*
X91841656Y-86665159D01*
X91803047Y-86723392D01*
X91747384Y-86750147D01*
X91708167Y-86757948D01*
X91708160Y-86757950D01*
X91526092Y-86833364D01*
X91526079Y-86833371D01*
X91362218Y-86942860D01*
X91362214Y-86942863D01*
X91222863Y-87082214D01*
X91222860Y-87082218D01*
X91113371Y-87246079D01*
X91113364Y-87246092D01*
X91037950Y-87428160D01*
X91037947Y-87428170D01*
X90999500Y-87621456D01*
X90999500Y-87621459D01*
X90999500Y-87818541D01*
X90999500Y-87818543D01*
X90999499Y-87818543D01*
X91037947Y-88011829D01*
X91037950Y-88011839D01*
X91113364Y-88193907D01*
X91113371Y-88193920D01*
X91222860Y-88357781D01*
X91222863Y-88357785D01*
X91362214Y-88497136D01*
X91362218Y-88497139D01*
X91526079Y-88606628D01*
X91526092Y-88606635D01*
X91629323Y-88649394D01*
X91708165Y-88682051D01*
X91708169Y-88682051D01*
X91708170Y-88682052D01*
X91901456Y-88720500D01*
X91901459Y-88720500D01*
X92098543Y-88720500D01*
X92228582Y-88694632D01*
X92291835Y-88682051D01*
X92473914Y-88606632D01*
X92637782Y-88497139D01*
X92777139Y-88357782D01*
X92886632Y-88193914D01*
X92962051Y-88011835D01*
X92981712Y-87912993D01*
X93000500Y-87818543D01*
X93000500Y-87621456D01*
X92962052Y-87428170D01*
X92962051Y-87428169D01*
X92962051Y-87428165D01*
X92917207Y-87319901D01*
X92886635Y-87246092D01*
X92886628Y-87246079D01*
X92777139Y-87082218D01*
X92777136Y-87082214D01*
X92637785Y-86942863D01*
X92637781Y-86942860D01*
X92473920Y-86833371D01*
X92473907Y-86833364D01*
X92291839Y-86757950D01*
X92291830Y-86757947D01*
X92252616Y-86750147D01*
X92190705Y-86717761D01*
X92156132Y-86657045D01*
X92159873Y-86587275D01*
X92200740Y-86530604D01*
X92257412Y-86506056D01*
X92316134Y-86496755D01*
X92518217Y-86431095D01*
X92707554Y-86334622D01*
X92761716Y-86295270D01*
X92761717Y-86295270D01*
X92129408Y-85662962D01*
X92192993Y-85645925D01*
X92307007Y-85580099D01*
X92400099Y-85487007D01*
X92465925Y-85372993D01*
X92482962Y-85309408D01*
X93115270Y-85941717D01*
X93115270Y-85941716D01*
X93154622Y-85887554D01*
X93206967Y-85784822D01*
X100999499Y-85784822D01*
X101008231Y-85828717D01*
X101008232Y-85828721D01*
X101008233Y-85828722D01*
X101041496Y-85878504D01*
X101091278Y-85911767D01*
X101091281Y-85911767D01*
X101091282Y-85911768D01*
X101135177Y-85920500D01*
X101135180Y-85920500D01*
X102864822Y-85920500D01*
X102908717Y-85911768D01*
X102908717Y-85911767D01*
X102908722Y-85911767D01*
X102958504Y-85878504D01*
X102991767Y-85828722D01*
X103000500Y-85784820D01*
X103000500Y-84055180D01*
X103000500Y-84055177D01*
X102991768Y-84011282D01*
X102991767Y-84011281D01*
X102991767Y-84011278D01*
X102958504Y-83961496D01*
X102958503Y-83961495D01*
X102908724Y-83928234D01*
X102908717Y-83928231D01*
X102864822Y-83919500D01*
X102864820Y-83919500D01*
X101135180Y-83919500D01*
X101135178Y-83919500D01*
X101091282Y-83928231D01*
X101091275Y-83928234D01*
X101041496Y-83961495D01*
X101041495Y-83961496D01*
X101008234Y-84011275D01*
X101008231Y-84011282D01*
X100999500Y-84055177D01*
X100999500Y-84055180D01*
X100999500Y-85784820D01*
X100999500Y-85784822D01*
X100999499Y-85784822D01*
X93206967Y-85784822D01*
X93251095Y-85698217D01*
X93316757Y-85496130D01*
X93316757Y-85496127D01*
X93350000Y-85286246D01*
X93350000Y-85073753D01*
X93316757Y-84863872D01*
X93316757Y-84863869D01*
X93251095Y-84661782D01*
X93154624Y-84472449D01*
X93115270Y-84418282D01*
X93115269Y-84418282D01*
X92482962Y-85050590D01*
X92465925Y-84987007D01*
X92400099Y-84872993D01*
X92307007Y-84779901D01*
X92192993Y-84714075D01*
X92129409Y-84697037D01*
X92761716Y-84064728D01*
X92707550Y-84025375D01*
X92518217Y-83928904D01*
X92316128Y-83863242D01*
X92257411Y-83853942D01*
X92194276Y-83824012D01*
X92157345Y-83764701D01*
X92158343Y-83694838D01*
X92196953Y-83636606D01*
X92252615Y-83609852D01*
X92291835Y-83602051D01*
X92473914Y-83526632D01*
X92637782Y-83417139D01*
X92777139Y-83277782D01*
X92886632Y-83113914D01*
X92962051Y-82931835D01*
X93000500Y-82738541D01*
X93000500Y-82541459D01*
X93000500Y-82541456D01*
X92962052Y-82348170D01*
X92962051Y-82348169D01*
X92962051Y-82348165D01*
X92962049Y-82348160D01*
X92886635Y-82166092D01*
X92886628Y-82166079D01*
X92777139Y-82002218D01*
X92777136Y-82002214D01*
X92637785Y-81862863D01*
X92637781Y-81862860D01*
X92473920Y-81753371D01*
X92473907Y-81753364D01*
X92291839Y-81677950D01*
X92291829Y-81677947D01*
X92098543Y-81639500D01*
X92098541Y-81639500D01*
X91901459Y-81639500D01*
X91901457Y-81639500D01*
X91708170Y-81677947D01*
X91708160Y-81677950D01*
X91526092Y-81753364D01*
X91526079Y-81753371D01*
X91362218Y-81862860D01*
X91362214Y-81862863D01*
X91222863Y-82002214D01*
X91222860Y-82002218D01*
X91113371Y-82166079D01*
X91113364Y-82166092D01*
X91037950Y-82348160D01*
X91037947Y-82348170D01*
X90999500Y-82541456D01*
X90999500Y-82541459D01*
X90999500Y-82738541D01*
X90999500Y-82738543D01*
X90999499Y-82738543D01*
X91037947Y-82931829D01*
X91037950Y-82931839D01*
X91113364Y-83113907D01*
X91113371Y-83113920D01*
X91222860Y-83277781D01*
X91222863Y-83277785D01*
X91362214Y-83417136D01*
X91362218Y-83417139D01*
X91526079Y-83526628D01*
X91526092Y-83526635D01*
X91708160Y-83602049D01*
X91708165Y-83602051D01*
X91728491Y-83606094D01*
X91747381Y-83609852D01*
X91809292Y-83642237D01*
X91843866Y-83702952D01*
X91840127Y-83772722D01*
X91799261Y-83829394D01*
X91742589Y-83853942D01*
X91683870Y-83863242D01*
X91683869Y-83863242D01*
X91481782Y-83928904D01*
X91292439Y-84025380D01*
X91238282Y-84064727D01*
X91238282Y-84064728D01*
X91870591Y-84697037D01*
X91807007Y-84714075D01*
X91692993Y-84779901D01*
X91599901Y-84872993D01*
X91534075Y-84987007D01*
X91517037Y-85050591D01*
X90884728Y-84418282D01*
X90884727Y-84418282D01*
X90845380Y-84472439D01*
X90748904Y-84661782D01*
X90683242Y-84863869D01*
X90683242Y-84863872D01*
X90650000Y-85073753D01*
X69293967Y-85073753D01*
X69257051Y-84888165D01*
X69246987Y-84863869D01*
X69181635Y-84706092D01*
X69181628Y-84706079D01*
X69072139Y-84542218D01*
X69072136Y-84542214D01*
X68932785Y-84402863D01*
X68932781Y-84402860D01*
X68768920Y-84293371D01*
X68768907Y-84293364D01*
X68586839Y-84217950D01*
X68586829Y-84217947D01*
X68393543Y-84179500D01*
X68393541Y-84179500D01*
X68196459Y-84179500D01*
X68196457Y-84179500D01*
X68003170Y-84217947D01*
X68003160Y-84217950D01*
X67821092Y-84293364D01*
X67821079Y-84293371D01*
X67657218Y-84402860D01*
X67657214Y-84402863D01*
X67517863Y-84542214D01*
X67517860Y-84542218D01*
X67408371Y-84706079D01*
X67408364Y-84706092D01*
X67332950Y-84888160D01*
X67332947Y-84888170D01*
X67294500Y-85081456D01*
X67294500Y-85081459D01*
X67294500Y-85278541D01*
X67294500Y-85278543D01*
X67294499Y-85278543D01*
X67332947Y-85471829D01*
X67332950Y-85471839D01*
X67408364Y-85653907D01*
X67408371Y-85653920D01*
X67517860Y-85817781D01*
X67517863Y-85817785D01*
X67657214Y-85957136D01*
X67657218Y-85957139D01*
X67821079Y-86066628D01*
X67821092Y-86066635D01*
X68003160Y-86142049D01*
X68003165Y-86142051D01*
X68023491Y-86146094D01*
X68042381Y-86149852D01*
X68104292Y-86182237D01*
X68138866Y-86242952D01*
X68135127Y-86312722D01*
X68094261Y-86369394D01*
X68037589Y-86393942D01*
X67978870Y-86403242D01*
X67978869Y-86403242D01*
X67776782Y-86468904D01*
X67587439Y-86565380D01*
X67533282Y-86604727D01*
X67533282Y-86604728D01*
X68165591Y-87237037D01*
X68102007Y-87254075D01*
X67987993Y-87319901D01*
X67894901Y-87412993D01*
X67829075Y-87527007D01*
X67812037Y-87590591D01*
X67179728Y-86958282D01*
X67179727Y-86958282D01*
X67140380Y-87012439D01*
X67043904Y-87201782D01*
X66978242Y-87403869D01*
X66978242Y-87403872D01*
X66945000Y-87613753D01*
X53878536Y-87613753D01*
X53872375Y-87599869D01*
X53860667Y-87585860D01*
X53858498Y-87568597D01*
X53851442Y-87552696D01*
X53854234Y-87534653D01*
X53851958Y-87516535D01*
X53859466Y-87500840D01*
X53862127Y-87483648D01*
X53874231Y-87469977D01*
X53882112Y-87453507D01*
X53901473Y-87436052D01*
X54014646Y-87353828D01*
X54153828Y-87214646D01*
X54269524Y-87055405D01*
X54358884Y-86880025D01*
X54419709Y-86692826D01*
X54425376Y-86657045D01*
X54450500Y-86498422D01*
X54450500Y-86301577D01*
X54419709Y-86107173D01*
X54365948Y-85941716D01*
X54358884Y-85919975D01*
X54358882Y-85919972D01*
X54358882Y-85919970D01*
X54306814Y-85817781D01*
X54269524Y-85744595D01*
X54153828Y-85585354D01*
X54014646Y-85446172D01*
X53855405Y-85330476D01*
X53680029Y-85241117D01*
X53532857Y-85193298D01*
X53492826Y-85180290D01*
X53298422Y-85149500D01*
X53298417Y-85149500D01*
X51801583Y-85149500D01*
X51801578Y-85149500D01*
X51607173Y-85180290D01*
X51419970Y-85241117D01*
X51244594Y-85330476D01*
X51153741Y-85396485D01*
X51085354Y-85446172D01*
X51085352Y-85446174D01*
X51085351Y-85446174D01*
X50946174Y-85585351D01*
X50946174Y-85585352D01*
X50946172Y-85585354D01*
X50902164Y-85645925D01*
X50830476Y-85744594D01*
X50741117Y-85919970D01*
X50680290Y-86107173D01*
X50649500Y-86301577D01*
X50000500Y-86301577D01*
X50000500Y-82738543D01*
X67294499Y-82738543D01*
X67332947Y-82931829D01*
X67332950Y-82931839D01*
X67408364Y-83113907D01*
X67408371Y-83113920D01*
X67517860Y-83277781D01*
X67517863Y-83277785D01*
X67657214Y-83417136D01*
X67657218Y-83417139D01*
X67821079Y-83526628D01*
X67821092Y-83526635D01*
X68003160Y-83602049D01*
X68003165Y-83602051D01*
X68003169Y-83602051D01*
X68003170Y-83602052D01*
X68196456Y-83640500D01*
X68196459Y-83640500D01*
X68393543Y-83640500D01*
X68547622Y-83609851D01*
X68586835Y-83602051D01*
X68768914Y-83526632D01*
X68932782Y-83417139D01*
X69072139Y-83277782D01*
X69181632Y-83113914D01*
X69257051Y-82931835D01*
X69295500Y-82738541D01*
X69295500Y-82541459D01*
X69295500Y-82541456D01*
X69257052Y-82348170D01*
X69257051Y-82348169D01*
X69257051Y-82348165D01*
X69257049Y-82348160D01*
X69181635Y-82166092D01*
X69181628Y-82166079D01*
X69072139Y-82002218D01*
X69072136Y-82002214D01*
X68932785Y-81862863D01*
X68932781Y-81862860D01*
X68768920Y-81753371D01*
X68768907Y-81753364D01*
X68586839Y-81677950D01*
X68586829Y-81677947D01*
X68393543Y-81639500D01*
X68393541Y-81639500D01*
X68196459Y-81639500D01*
X68196457Y-81639500D01*
X68003170Y-81677947D01*
X68003160Y-81677950D01*
X67821092Y-81753364D01*
X67821079Y-81753371D01*
X67657218Y-81862860D01*
X67657214Y-81862863D01*
X67517863Y-82002214D01*
X67517860Y-82002218D01*
X67408371Y-82166079D01*
X67408364Y-82166092D01*
X67332950Y-82348160D01*
X67332947Y-82348170D01*
X67294500Y-82541456D01*
X67294500Y-82541459D01*
X67294500Y-82738541D01*
X67294500Y-82738543D01*
X67294499Y-82738543D01*
X50000500Y-82738543D01*
X50000500Y-81073920D01*
X55474499Y-81073920D01*
X55503340Y-81218907D01*
X55503343Y-81218917D01*
X55559912Y-81355488D01*
X55559919Y-81355501D01*
X55642048Y-81478415D01*
X55642051Y-81478419D01*
X55746580Y-81582948D01*
X55746584Y-81582951D01*
X55869498Y-81665080D01*
X55869511Y-81665087D01*
X56006082Y-81721656D01*
X56006087Y-81721658D01*
X56006091Y-81721658D01*
X56006092Y-81721659D01*
X56151079Y-81750500D01*
X56151082Y-81750500D01*
X56848920Y-81750500D01*
X56946462Y-81731096D01*
X56993913Y-81721658D01*
X57130495Y-81665084D01*
X57253416Y-81582951D01*
X57357951Y-81478416D01*
X57440084Y-81355495D01*
X57496658Y-81218913D01*
X57506096Y-81171462D01*
X57525500Y-81073920D01*
X57525500Y-80926079D01*
X57496659Y-80781092D01*
X57496658Y-80781091D01*
X57496658Y-80781087D01*
X57478720Y-80737781D01*
X57440087Y-80644511D01*
X57440080Y-80644498D01*
X57357951Y-80521584D01*
X57357948Y-80521580D01*
X57253419Y-80417051D01*
X57253415Y-80417048D01*
X57130501Y-80334919D01*
X57130488Y-80334912D01*
X56993917Y-80278343D01*
X56993907Y-80278340D01*
X56848920Y-80249500D01*
X56848918Y-80249500D01*
X56151082Y-80249500D01*
X56151080Y-80249500D01*
X56006092Y-80278340D01*
X56006082Y-80278343D01*
X55869511Y-80334912D01*
X55869498Y-80334919D01*
X55746584Y-80417048D01*
X55746580Y-80417051D01*
X55642051Y-80521580D01*
X55642048Y-80521584D01*
X55559919Y-80644498D01*
X55559912Y-80644511D01*
X55503343Y-80781082D01*
X55503340Y-80781092D01*
X55474500Y-80926079D01*
X55474500Y-80926082D01*
X55474500Y-81073918D01*
X55474500Y-81073920D01*
X55474499Y-81073920D01*
X50000500Y-81073920D01*
X50000500Y-80198543D01*
X67294499Y-80198543D01*
X67332947Y-80391829D01*
X67332950Y-80391839D01*
X67408364Y-80573907D01*
X67408371Y-80573920D01*
X67517860Y-80737781D01*
X67517863Y-80737785D01*
X67657214Y-80877136D01*
X67657218Y-80877139D01*
X67821079Y-80986628D01*
X67821092Y-80986635D01*
X68003160Y-81062049D01*
X68003165Y-81062051D01*
X68003169Y-81062051D01*
X68003170Y-81062052D01*
X68196456Y-81100500D01*
X68196459Y-81100500D01*
X68393543Y-81100500D01*
X68527176Y-81073918D01*
X68586835Y-81062051D01*
X68768914Y-80986632D01*
X68932782Y-80877139D01*
X69072139Y-80737782D01*
X69181632Y-80573914D01*
X69257051Y-80391835D01*
X69279626Y-80278343D01*
X69295500Y-80198543D01*
X90999499Y-80198543D01*
X91037947Y-80391829D01*
X91037950Y-80391839D01*
X91113364Y-80573907D01*
X91113371Y-80573920D01*
X91222860Y-80737781D01*
X91222863Y-80737785D01*
X91362214Y-80877136D01*
X91362218Y-80877139D01*
X91526079Y-80986628D01*
X91526092Y-80986635D01*
X91708160Y-81062049D01*
X91708165Y-81062051D01*
X91708169Y-81062051D01*
X91708170Y-81062052D01*
X91901456Y-81100500D01*
X91901459Y-81100500D01*
X92098543Y-81100500D01*
X92232176Y-81073918D01*
X92291835Y-81062051D01*
X92473914Y-80986632D01*
X92637782Y-80877139D01*
X92777139Y-80737782D01*
X92886632Y-80573914D01*
X92962051Y-80391835D01*
X92984626Y-80278343D01*
X93000500Y-80198543D01*
X93000500Y-80001456D01*
X92962052Y-79808170D01*
X92962051Y-79808169D01*
X92962051Y-79808165D01*
X92938165Y-79750499D01*
X92886635Y-79626092D01*
X92886628Y-79626079D01*
X92777139Y-79462218D01*
X92777136Y-79462214D01*
X92637785Y-79322863D01*
X92637781Y-79322860D01*
X92473920Y-79213371D01*
X92473907Y-79213364D01*
X92291839Y-79137950D01*
X92291829Y-79137947D01*
X92098543Y-79099500D01*
X92098541Y-79099500D01*
X91901459Y-79099500D01*
X91901457Y-79099500D01*
X91708170Y-79137947D01*
X91708160Y-79137950D01*
X91526092Y-79213364D01*
X91526079Y-79213371D01*
X91362218Y-79322860D01*
X91362214Y-79322863D01*
X91222863Y-79462214D01*
X91222860Y-79462218D01*
X91113371Y-79626079D01*
X91113364Y-79626092D01*
X91037950Y-79808160D01*
X91037947Y-79808170D01*
X90999500Y-80001456D01*
X90999500Y-80001459D01*
X90999500Y-80198541D01*
X90999500Y-80198543D01*
X90999499Y-80198543D01*
X69295500Y-80198543D01*
X69295500Y-80001456D01*
X69257052Y-79808170D01*
X69257051Y-79808169D01*
X69257051Y-79808165D01*
X69233165Y-79750499D01*
X69181635Y-79626092D01*
X69181628Y-79626079D01*
X69072139Y-79462218D01*
X69072136Y-79462214D01*
X68932785Y-79322863D01*
X68932781Y-79322860D01*
X68768920Y-79213371D01*
X68768907Y-79213364D01*
X68586839Y-79137950D01*
X68586829Y-79137947D01*
X68393543Y-79099500D01*
X68393541Y-79099500D01*
X68196459Y-79099500D01*
X68196457Y-79099500D01*
X68003170Y-79137947D01*
X68003160Y-79137950D01*
X67821092Y-79213364D01*
X67821079Y-79213371D01*
X67657218Y-79322860D01*
X67657214Y-79322863D01*
X67517863Y-79462214D01*
X67517860Y-79462218D01*
X67408371Y-79626079D01*
X67408364Y-79626092D01*
X67332950Y-79808160D01*
X67332947Y-79808170D01*
X67294500Y-80001456D01*
X67294500Y-80001459D01*
X67294500Y-80198541D01*
X67294500Y-80198543D01*
X67294499Y-80198543D01*
X50000500Y-80198543D01*
X50000500Y-78618475D01*
X55474500Y-78618475D01*
X55474500Y-79381517D01*
X55481646Y-79426635D01*
X55489354Y-79475304D01*
X55546950Y-79588342D01*
X55546952Y-79588344D01*
X55546954Y-79588347D01*
X55636652Y-79678045D01*
X55636654Y-79678046D01*
X55636658Y-79678050D01*
X55749694Y-79735645D01*
X55749698Y-79735647D01*
X55843475Y-79750499D01*
X55843481Y-79750500D01*
X57156518Y-79750499D01*
X57250304Y-79735646D01*
X57363342Y-79678050D01*
X57453050Y-79588342D01*
X57510646Y-79475304D01*
X57510646Y-79475302D01*
X57510647Y-79475301D01*
X57525499Y-79381524D01*
X57525500Y-79381519D01*
X57525499Y-78638543D01*
X100999499Y-78638543D01*
X101037947Y-78831829D01*
X101037950Y-78831839D01*
X101113364Y-79013907D01*
X101113371Y-79013920D01*
X101222860Y-79177781D01*
X101222863Y-79177785D01*
X101362214Y-79317136D01*
X101362218Y-79317139D01*
X101526079Y-79426628D01*
X101526092Y-79426635D01*
X101708160Y-79502049D01*
X101708165Y-79502051D01*
X101708169Y-79502051D01*
X101708170Y-79502052D01*
X101901456Y-79540500D01*
X101901459Y-79540500D01*
X102098543Y-79540500D01*
X102228582Y-79514632D01*
X102291835Y-79502051D01*
X102473914Y-79426632D01*
X102637782Y-79317139D01*
X102777139Y-79177782D01*
X102886632Y-79013914D01*
X102962051Y-78831835D01*
X103000500Y-78638541D01*
X103000500Y-78441459D01*
X103000500Y-78441456D01*
X102962052Y-78248170D01*
X102962051Y-78248169D01*
X102962051Y-78248165D01*
X102941182Y-78197782D01*
X102886635Y-78066092D01*
X102886628Y-78066079D01*
X102777139Y-77902218D01*
X102777136Y-77902214D01*
X102637785Y-77762863D01*
X102637781Y-77762860D01*
X102473920Y-77653371D01*
X102473907Y-77653364D01*
X102291839Y-77577950D01*
X102291829Y-77577947D01*
X102098543Y-77539500D01*
X102098541Y-77539500D01*
X101901459Y-77539500D01*
X101901457Y-77539500D01*
X101708170Y-77577947D01*
X101708160Y-77577950D01*
X101526092Y-77653364D01*
X101526079Y-77653371D01*
X101362218Y-77762860D01*
X101362214Y-77762863D01*
X101222863Y-77902214D01*
X101222860Y-77902218D01*
X101113371Y-78066079D01*
X101113364Y-78066092D01*
X101037950Y-78248160D01*
X101037947Y-78248170D01*
X100999500Y-78441456D01*
X100999500Y-78441459D01*
X100999500Y-78638541D01*
X100999500Y-78638543D01*
X100999499Y-78638543D01*
X57525499Y-78638543D01*
X57525499Y-78618482D01*
X57510646Y-78524696D01*
X57453050Y-78411658D01*
X57453046Y-78411654D01*
X57453045Y-78411652D01*
X57363347Y-78321954D01*
X57363344Y-78321952D01*
X57363342Y-78321950D01*
X57286517Y-78282805D01*
X57250301Y-78264352D01*
X57156524Y-78249500D01*
X55843482Y-78249500D01*
X55762519Y-78262323D01*
X55749696Y-78264354D01*
X55636658Y-78321950D01*
X55636657Y-78321951D01*
X55636652Y-78321954D01*
X55546954Y-78411652D01*
X55546951Y-78411657D01*
X55489352Y-78524698D01*
X55474500Y-78618475D01*
X50000500Y-78618475D01*
X50000500Y-77658543D01*
X67294499Y-77658543D01*
X67332947Y-77851829D01*
X67332950Y-77851839D01*
X67408364Y-78033907D01*
X67408371Y-78033920D01*
X67517860Y-78197781D01*
X67517863Y-78197785D01*
X67657214Y-78337136D01*
X67657218Y-78337139D01*
X67821079Y-78446628D01*
X67821092Y-78446635D01*
X68003160Y-78522049D01*
X68003165Y-78522051D01*
X68003169Y-78522051D01*
X68003170Y-78522052D01*
X68196456Y-78560500D01*
X68196459Y-78560500D01*
X68393543Y-78560500D01*
X68523582Y-78534632D01*
X68586835Y-78522051D01*
X68768914Y-78446632D01*
X68932782Y-78337139D01*
X69072139Y-78197782D01*
X69181632Y-78033914D01*
X69257051Y-77851835D01*
X69274749Y-77762861D01*
X69295500Y-77658543D01*
X90999499Y-77658543D01*
X91037947Y-77851829D01*
X91037950Y-77851839D01*
X91113364Y-78033907D01*
X91113371Y-78033920D01*
X91222860Y-78197781D01*
X91222863Y-78197785D01*
X91362214Y-78337136D01*
X91362218Y-78337139D01*
X91526079Y-78446628D01*
X91526092Y-78446635D01*
X91708160Y-78522049D01*
X91708165Y-78522051D01*
X91708169Y-78522051D01*
X91708170Y-78522052D01*
X91901456Y-78560500D01*
X91901459Y-78560500D01*
X92098543Y-78560500D01*
X92228582Y-78534632D01*
X92291835Y-78522051D01*
X92473914Y-78446632D01*
X92637782Y-78337139D01*
X92777139Y-78197782D01*
X92886632Y-78033914D01*
X92962051Y-77851835D01*
X92979749Y-77762861D01*
X93000500Y-77658543D01*
X93000500Y-77461456D01*
X92962052Y-77268170D01*
X92962051Y-77268169D01*
X92962051Y-77268165D01*
X92962049Y-77268160D01*
X92886635Y-77086092D01*
X92886628Y-77086079D01*
X92777139Y-76922218D01*
X92777136Y-76922214D01*
X92637785Y-76782863D01*
X92637781Y-76782860D01*
X92473920Y-76673371D01*
X92473907Y-76673364D01*
X92291839Y-76597950D01*
X92291829Y-76597947D01*
X92098543Y-76559500D01*
X92098541Y-76559500D01*
X91901459Y-76559500D01*
X91901457Y-76559500D01*
X91708170Y-76597947D01*
X91708160Y-76597950D01*
X91526092Y-76673364D01*
X91526079Y-76673371D01*
X91362218Y-76782860D01*
X91362214Y-76782863D01*
X91222863Y-76922214D01*
X91222860Y-76922218D01*
X91113371Y-77086079D01*
X91113364Y-77086092D01*
X91037950Y-77268160D01*
X91037947Y-77268170D01*
X90999500Y-77461456D01*
X90999500Y-77461459D01*
X90999500Y-77658541D01*
X90999500Y-77658543D01*
X90999499Y-77658543D01*
X69295500Y-77658543D01*
X69295500Y-77461456D01*
X69257052Y-77268170D01*
X69257051Y-77268169D01*
X69257051Y-77268165D01*
X69257049Y-77268160D01*
X69181635Y-77086092D01*
X69181628Y-77086079D01*
X69072139Y-76922218D01*
X69072136Y-76922214D01*
X68932785Y-76782863D01*
X68932781Y-76782860D01*
X68768920Y-76673371D01*
X68768907Y-76673364D01*
X68586839Y-76597950D01*
X68586829Y-76597947D01*
X68393543Y-76559500D01*
X68393541Y-76559500D01*
X68196459Y-76559500D01*
X68196457Y-76559500D01*
X68003170Y-76597947D01*
X68003160Y-76597950D01*
X67821092Y-76673364D01*
X67821079Y-76673371D01*
X67657218Y-76782860D01*
X67657214Y-76782863D01*
X67517863Y-76922214D01*
X67517860Y-76922218D01*
X67408371Y-77086079D01*
X67408364Y-77086092D01*
X67332950Y-77268160D01*
X67332947Y-77268170D01*
X67294500Y-77461456D01*
X67294500Y-77461459D01*
X67294500Y-77658541D01*
X67294500Y-77658543D01*
X67294499Y-77658543D01*
X50000500Y-77658543D01*
X50000500Y-75118543D01*
X67294499Y-75118543D01*
X67332947Y-75311829D01*
X67332950Y-75311839D01*
X67408364Y-75493907D01*
X67408371Y-75493920D01*
X67517860Y-75657781D01*
X67517863Y-75657785D01*
X67657214Y-75797136D01*
X67657218Y-75797139D01*
X67821079Y-75906628D01*
X67821092Y-75906635D01*
X68003160Y-75982049D01*
X68003165Y-75982051D01*
X68003169Y-75982051D01*
X68003170Y-75982052D01*
X68196456Y-76020500D01*
X68196459Y-76020500D01*
X68393543Y-76020500D01*
X68523582Y-75994632D01*
X68586835Y-75982051D01*
X68768914Y-75906632D01*
X68932782Y-75797139D01*
X69072139Y-75657782D01*
X69181632Y-75493914D01*
X69257051Y-75311835D01*
X69274749Y-75222861D01*
X69295500Y-75118543D01*
X90999499Y-75118543D01*
X91037947Y-75311829D01*
X91037950Y-75311839D01*
X91113364Y-75493907D01*
X91113371Y-75493920D01*
X91222860Y-75657781D01*
X91222863Y-75657785D01*
X91362214Y-75797136D01*
X91362218Y-75797139D01*
X91526079Y-75906628D01*
X91526092Y-75906635D01*
X91708160Y-75982049D01*
X91708165Y-75982051D01*
X91708169Y-75982051D01*
X91708170Y-75982052D01*
X91901456Y-76020500D01*
X91901459Y-76020500D01*
X92098543Y-76020500D01*
X92228582Y-75994632D01*
X92291835Y-75982051D01*
X92473914Y-75906632D01*
X92637782Y-75797139D01*
X92777139Y-75657782D01*
X92886632Y-75493914D01*
X92962051Y-75311835D01*
X92979749Y-75222861D01*
X93000500Y-75118543D01*
X93000500Y-74921456D01*
X92962052Y-74728170D01*
X92962051Y-74728169D01*
X92962051Y-74728165D01*
X92936795Y-74667190D01*
X92886635Y-74546092D01*
X92886628Y-74546079D01*
X92777139Y-74382218D01*
X92777136Y-74382214D01*
X92637785Y-74242863D01*
X92637781Y-74242860D01*
X92473920Y-74133371D01*
X92473907Y-74133364D01*
X92291839Y-74057950D01*
X92291829Y-74057947D01*
X92098543Y-74019500D01*
X92098541Y-74019500D01*
X91901459Y-74019500D01*
X91901457Y-74019500D01*
X91708170Y-74057947D01*
X91708160Y-74057950D01*
X91526092Y-74133364D01*
X91526079Y-74133371D01*
X91362218Y-74242860D01*
X91362214Y-74242863D01*
X91222863Y-74382214D01*
X91222860Y-74382218D01*
X91113371Y-74546079D01*
X91113364Y-74546092D01*
X91037950Y-74728160D01*
X91037947Y-74728170D01*
X90999500Y-74921456D01*
X90999500Y-74921459D01*
X90999500Y-75118541D01*
X90999500Y-75118543D01*
X90999499Y-75118543D01*
X69295500Y-75118543D01*
X69295500Y-74921456D01*
X69257052Y-74728170D01*
X69257051Y-74728169D01*
X69257051Y-74728165D01*
X69231795Y-74667190D01*
X69181635Y-74546092D01*
X69181628Y-74546079D01*
X69072139Y-74382218D01*
X69072136Y-74382214D01*
X68932785Y-74242863D01*
X68932781Y-74242860D01*
X68768920Y-74133371D01*
X68768907Y-74133364D01*
X68586839Y-74057950D01*
X68586829Y-74057947D01*
X68393543Y-74019500D01*
X68393541Y-74019500D01*
X68196459Y-74019500D01*
X68196457Y-74019500D01*
X68003170Y-74057947D01*
X68003160Y-74057950D01*
X67821092Y-74133364D01*
X67821079Y-74133371D01*
X67657218Y-74242860D01*
X67657214Y-74242863D01*
X67517863Y-74382214D01*
X67517860Y-74382218D01*
X67408371Y-74546079D01*
X67408364Y-74546092D01*
X67332950Y-74728160D01*
X67332947Y-74728170D01*
X67294500Y-74921456D01*
X67294500Y-74921459D01*
X67294500Y-75118541D01*
X67294500Y-75118543D01*
X67294499Y-75118543D01*
X50000500Y-75118543D01*
X50000500Y-72865602D01*
X50449500Y-72865602D01*
X50449500Y-73134397D01*
X50484582Y-73400880D01*
X50484583Y-73400885D01*
X50484584Y-73400891D01*
X50495613Y-73442051D01*
X50554152Y-73660524D01*
X50657011Y-73908850D01*
X50657019Y-73908866D01*
X50686542Y-73960000D01*
X50791413Y-74141641D01*
X50791415Y-74141644D01*
X50791416Y-74141645D01*
X50955042Y-74354888D01*
X50955048Y-74354895D01*
X51145104Y-74544951D01*
X51145111Y-74544957D01*
X51146590Y-74546092D01*
X51358359Y-74708587D01*
X51507968Y-74794964D01*
X51591133Y-74842980D01*
X51591149Y-74842988D01*
X51658118Y-74870727D01*
X51839474Y-74945847D01*
X52099109Y-75015416D01*
X52270267Y-75037949D01*
X52365602Y-75050500D01*
X52365603Y-75050500D01*
X52634398Y-75050500D01*
X52694905Y-75042534D01*
X52900891Y-75015416D01*
X53160526Y-74945847D01*
X53347457Y-74868417D01*
X53408850Y-74842988D01*
X53408851Y-74842986D01*
X53408859Y-74842984D01*
X53641641Y-74708587D01*
X53854890Y-74544956D01*
X54044956Y-74354890D01*
X54208587Y-74141641D01*
X54342984Y-73908859D01*
X54445847Y-73660526D01*
X54515416Y-73400891D01*
X54550500Y-73134397D01*
X54550500Y-72865603D01*
X54515416Y-72599109D01*
X54509905Y-72578543D01*
X67294499Y-72578543D01*
X67332947Y-72771829D01*
X67332950Y-72771839D01*
X67408364Y-72953907D01*
X67408371Y-72953920D01*
X67517860Y-73117781D01*
X67517863Y-73117785D01*
X67657214Y-73257136D01*
X67657218Y-73257139D01*
X67821079Y-73366628D01*
X67821092Y-73366635D01*
X68003160Y-73442049D01*
X68003165Y-73442051D01*
X68003169Y-73442051D01*
X68003170Y-73442052D01*
X68196456Y-73480500D01*
X68196459Y-73480500D01*
X68393543Y-73480500D01*
X68523582Y-73454632D01*
X68586835Y-73442051D01*
X68768914Y-73366632D01*
X68932782Y-73257139D01*
X69072139Y-73117782D01*
X69181632Y-72953914D01*
X69257051Y-72771835D01*
X69291409Y-72599109D01*
X69295500Y-72578543D01*
X90999499Y-72578543D01*
X91037947Y-72771829D01*
X91037950Y-72771839D01*
X91113364Y-72953907D01*
X91113371Y-72953920D01*
X91222860Y-73117781D01*
X91222863Y-73117785D01*
X91362214Y-73257136D01*
X91362218Y-73257139D01*
X91526079Y-73366628D01*
X91526092Y-73366635D01*
X91708160Y-73442049D01*
X91708165Y-73442051D01*
X91708169Y-73442051D01*
X91708170Y-73442052D01*
X91901456Y-73480500D01*
X91901459Y-73480500D01*
X92098543Y-73480500D01*
X92228582Y-73454632D01*
X92291835Y-73442051D01*
X92473914Y-73366632D01*
X92637782Y-73257139D01*
X92777139Y-73117782D01*
X92886632Y-72953914D01*
X92962051Y-72771835D01*
X92996409Y-72599109D01*
X93000500Y-72578543D01*
X93000500Y-72562155D01*
X100650000Y-72562155D01*
X100650000Y-73210000D01*
X101566988Y-73210000D01*
X101534075Y-73267007D01*
X101500000Y-73394174D01*
X101500000Y-73525826D01*
X101534075Y-73652993D01*
X101566988Y-73710000D01*
X100650000Y-73710000D01*
X100650000Y-74357844D01*
X100656401Y-74417372D01*
X100656403Y-74417379D01*
X100706645Y-74552086D01*
X100706649Y-74552093D01*
X100792809Y-74667187D01*
X100792812Y-74667190D01*
X100907906Y-74753350D01*
X100907913Y-74753354D01*
X101042620Y-74803596D01*
X101042627Y-74803598D01*
X101102155Y-74809999D01*
X101102172Y-74810000D01*
X101635092Y-74810000D01*
X101702131Y-74829685D01*
X101747886Y-74882489D01*
X101757830Y-74951647D01*
X101728805Y-75015203D01*
X101682544Y-75048561D01*
X101526092Y-75113364D01*
X101526079Y-75113371D01*
X101362218Y-75222860D01*
X101362214Y-75222863D01*
X101222863Y-75362214D01*
X101222860Y-75362218D01*
X101113371Y-75526079D01*
X101113364Y-75526092D01*
X101037950Y-75708160D01*
X101037947Y-75708170D01*
X100999500Y-75901456D01*
X100999500Y-75901459D01*
X100999500Y-76098541D01*
X100999500Y-76098543D01*
X100999499Y-76098543D01*
X101037947Y-76291829D01*
X101037950Y-76291839D01*
X101113364Y-76473907D01*
X101113371Y-76473920D01*
X101222860Y-76637781D01*
X101222863Y-76637785D01*
X101362214Y-76777136D01*
X101362218Y-76777139D01*
X101526079Y-76886628D01*
X101526092Y-76886635D01*
X101708160Y-76962049D01*
X101708165Y-76962051D01*
X101708169Y-76962051D01*
X101708170Y-76962052D01*
X101901456Y-77000500D01*
X101901459Y-77000500D01*
X102098543Y-77000500D01*
X102228582Y-76974632D01*
X102291835Y-76962051D01*
X102473914Y-76886632D01*
X102637782Y-76777139D01*
X102777139Y-76637782D01*
X102886632Y-76473914D01*
X102962051Y-76291835D01*
X103000500Y-76098541D01*
X103000500Y-75901459D01*
X103000500Y-75901456D01*
X102962052Y-75708170D01*
X102962051Y-75708169D01*
X102962051Y-75708165D01*
X102941182Y-75657782D01*
X102886635Y-75526092D01*
X102886628Y-75526079D01*
X102777139Y-75362218D01*
X102777136Y-75362214D01*
X102637785Y-75222863D01*
X102637781Y-75222860D01*
X102473920Y-75113371D01*
X102473907Y-75113364D01*
X102317456Y-75048561D01*
X102263052Y-75004720D01*
X102240987Y-74938426D01*
X102258266Y-74870727D01*
X102309403Y-74823116D01*
X102364908Y-74810000D01*
X102897828Y-74810000D01*
X102897844Y-74809999D01*
X102957372Y-74803598D01*
X102957379Y-74803596D01*
X103092086Y-74753354D01*
X103092093Y-74753350D01*
X103207187Y-74667190D01*
X103207190Y-74667187D01*
X103293350Y-74552093D01*
X103293354Y-74552086D01*
X103343596Y-74417379D01*
X103343598Y-74417372D01*
X103349999Y-74357844D01*
X103350000Y-74357827D01*
X103350000Y-73710000D01*
X102433012Y-73710000D01*
X102465925Y-73652993D01*
X102500000Y-73525826D01*
X102500000Y-73394174D01*
X102465925Y-73267007D01*
X102433012Y-73210000D01*
X103350000Y-73210000D01*
X103350000Y-72865602D01*
X107449500Y-72865602D01*
X107449500Y-73134397D01*
X107484582Y-73400880D01*
X107484583Y-73400885D01*
X107484584Y-73400891D01*
X107495613Y-73442051D01*
X107554152Y-73660524D01*
X107657011Y-73908850D01*
X107657019Y-73908866D01*
X107686542Y-73960000D01*
X107791413Y-74141641D01*
X107791415Y-74141644D01*
X107791416Y-74141645D01*
X107955042Y-74354888D01*
X107955048Y-74354895D01*
X108145104Y-74544951D01*
X108145111Y-74544957D01*
X108146590Y-74546092D01*
X108358359Y-74708587D01*
X108507968Y-74794964D01*
X108591133Y-74842980D01*
X108591149Y-74842988D01*
X108658118Y-74870727D01*
X108839474Y-74945847D01*
X109099109Y-75015416D01*
X109270267Y-75037949D01*
X109365602Y-75050500D01*
X109365603Y-75050500D01*
X109634398Y-75050500D01*
X109694905Y-75042534D01*
X109900891Y-75015416D01*
X110160526Y-74945847D01*
X110347457Y-74868417D01*
X110408850Y-74842988D01*
X110408853Y-74842986D01*
X110408859Y-74842984D01*
X110641641Y-74708587D01*
X110854890Y-74544956D01*
X111044956Y-74354890D01*
X111208587Y-74141641D01*
X111342984Y-73908859D01*
X111445847Y-73660526D01*
X111515416Y-73400891D01*
X111550500Y-73134397D01*
X111550500Y-72865603D01*
X111515416Y-72599109D01*
X111445847Y-72339474D01*
X111383171Y-72188160D01*
X111342988Y-72091149D01*
X111342980Y-72091133D01*
X111287812Y-71995580D01*
X111208587Y-71858359D01*
X111044956Y-71645110D01*
X111044951Y-71645104D01*
X110854895Y-71455048D01*
X110854888Y-71455042D01*
X110641645Y-71291416D01*
X110641644Y-71291415D01*
X110641641Y-71291413D01*
X110548832Y-71237830D01*
X110408866Y-71157019D01*
X110408850Y-71157011D01*
X110160524Y-71054152D01*
X110030708Y-71019368D01*
X109900891Y-70984584D01*
X109900885Y-70984583D01*
X109900880Y-70984582D01*
X109634398Y-70949500D01*
X109634397Y-70949500D01*
X109365603Y-70949500D01*
X109365602Y-70949500D01*
X109099119Y-70984582D01*
X109099112Y-70984583D01*
X109099109Y-70984584D01*
X109044239Y-70999286D01*
X108839475Y-71054152D01*
X108591149Y-71157011D01*
X108591133Y-71157019D01*
X108358354Y-71291416D01*
X108145111Y-71455042D01*
X108145104Y-71455048D01*
X107955048Y-71645104D01*
X107955042Y-71645111D01*
X107791416Y-71858354D01*
X107657019Y-72091133D01*
X107657011Y-72091149D01*
X107554152Y-72339475D01*
X107484585Y-72599106D01*
X107484582Y-72599119D01*
X107449500Y-72865602D01*
X103350000Y-72865602D01*
X103350000Y-72562172D01*
X103349999Y-72562155D01*
X103343598Y-72502627D01*
X103343596Y-72502620D01*
X103293354Y-72367913D01*
X103293350Y-72367906D01*
X103207190Y-72252812D01*
X103207187Y-72252809D01*
X103092093Y-72166649D01*
X103092086Y-72166645D01*
X102957379Y-72116403D01*
X102957372Y-72116401D01*
X102897844Y-72110000D01*
X102250000Y-72110000D01*
X102250000Y-73026988D01*
X102192993Y-72994075D01*
X102065826Y-72960000D01*
X101934174Y-72960000D01*
X101807007Y-72994075D01*
X101750000Y-73026988D01*
X101750000Y-72110000D01*
X101102155Y-72110000D01*
X101042627Y-72116401D01*
X101042620Y-72116403D01*
X100907913Y-72166645D01*
X100907906Y-72166649D01*
X100792812Y-72252809D01*
X100792809Y-72252812D01*
X100706649Y-72367906D01*
X100706645Y-72367913D01*
X100656403Y-72502620D01*
X100656401Y-72502627D01*
X100650000Y-72562155D01*
X93000500Y-72562155D01*
X93000500Y-72381456D01*
X92962052Y-72188170D01*
X92962051Y-72188169D01*
X92962051Y-72188165D01*
X92953137Y-72166645D01*
X92886635Y-72006092D01*
X92886628Y-72006079D01*
X92777139Y-71842218D01*
X92777136Y-71842214D01*
X92637785Y-71702863D01*
X92637781Y-71702860D01*
X92473920Y-71593371D01*
X92473907Y-71593364D01*
X92291839Y-71517950D01*
X92291829Y-71517947D01*
X92098543Y-71479500D01*
X92098541Y-71479500D01*
X91901459Y-71479500D01*
X91901457Y-71479500D01*
X91708170Y-71517947D01*
X91708160Y-71517950D01*
X91526092Y-71593364D01*
X91526079Y-71593371D01*
X91362218Y-71702860D01*
X91362214Y-71702863D01*
X91222863Y-71842214D01*
X91222860Y-71842218D01*
X91113371Y-72006079D01*
X91113364Y-72006092D01*
X91037950Y-72188160D01*
X91037947Y-72188170D01*
X90999500Y-72381456D01*
X90999500Y-72381459D01*
X90999500Y-72578541D01*
X90999500Y-72578543D01*
X90999499Y-72578543D01*
X69295500Y-72578543D01*
X69295500Y-72381456D01*
X69257052Y-72188170D01*
X69257051Y-72188169D01*
X69257051Y-72188165D01*
X69248137Y-72166645D01*
X69181635Y-72006092D01*
X69181628Y-72006079D01*
X69072139Y-71842218D01*
X69072136Y-71842214D01*
X68932785Y-71702863D01*
X68932781Y-71702860D01*
X68768920Y-71593371D01*
X68768907Y-71593364D01*
X68586839Y-71517950D01*
X68586829Y-71517947D01*
X68393543Y-71479500D01*
X68393541Y-71479500D01*
X68196459Y-71479500D01*
X68196457Y-71479500D01*
X68003170Y-71517947D01*
X68003160Y-71517950D01*
X67821092Y-71593364D01*
X67821079Y-71593371D01*
X67657218Y-71702860D01*
X67657214Y-71702863D01*
X67517863Y-71842214D01*
X67517860Y-71842218D01*
X67408371Y-72006079D01*
X67408364Y-72006092D01*
X67332950Y-72188160D01*
X67332947Y-72188170D01*
X67294500Y-72381456D01*
X67294500Y-72381459D01*
X67294500Y-72578541D01*
X67294500Y-72578543D01*
X67294499Y-72578543D01*
X54509905Y-72578543D01*
X54445847Y-72339474D01*
X54383171Y-72188160D01*
X54342988Y-72091149D01*
X54342980Y-72091133D01*
X54287812Y-71995580D01*
X54208587Y-71858359D01*
X54044956Y-71645110D01*
X54044951Y-71645104D01*
X53854895Y-71455048D01*
X53854888Y-71455042D01*
X53641645Y-71291416D01*
X53641644Y-71291415D01*
X53641641Y-71291413D01*
X53548832Y-71237830D01*
X53408866Y-71157019D01*
X53408850Y-71157011D01*
X53160524Y-71054152D01*
X53030708Y-71019368D01*
X52900891Y-70984584D01*
X52900885Y-70984583D01*
X52900880Y-70984582D01*
X52634398Y-70949500D01*
X52634397Y-70949500D01*
X52365603Y-70949500D01*
X52365602Y-70949500D01*
X52099119Y-70984582D01*
X52099112Y-70984583D01*
X52099109Y-70984584D01*
X52044239Y-70999286D01*
X51839475Y-71054152D01*
X51591149Y-71157011D01*
X51591133Y-71157019D01*
X51358354Y-71291416D01*
X51145111Y-71455042D01*
X51145104Y-71455048D01*
X50955048Y-71645104D01*
X50955042Y-71645111D01*
X50791416Y-71858354D01*
X50657019Y-72091133D01*
X50657011Y-72091149D01*
X50554152Y-72339475D01*
X50484585Y-72599106D01*
X50484582Y-72599119D01*
X50449500Y-72865602D01*
X50000500Y-72865602D01*
X50000500Y-72004427D01*
X50000816Y-71995581D01*
X50005213Y-71934108D01*
X50015130Y-71795436D01*
X50017646Y-71777938D01*
X50059356Y-71586200D01*
X50064335Y-71569242D01*
X50132911Y-71385382D01*
X50140251Y-71369310D01*
X50234294Y-71197083D01*
X50243850Y-71182214D01*
X50361443Y-71025128D01*
X50373017Y-71011771D01*
X50511771Y-70873017D01*
X50525128Y-70861443D01*
X50682214Y-70743850D01*
X50697083Y-70734294D01*
X50869310Y-70640251D01*
X50885382Y-70632911D01*
X51069242Y-70564335D01*
X51086200Y-70559356D01*
X51277938Y-70517646D01*
X51295436Y-70515130D01*
X51495582Y-70500816D01*
X51504428Y-70500500D01*
X51565892Y-70500500D01*
X110434108Y-70500500D01*
X110495572Y-70500500D01*
X110504418Y-70500816D01*
G37*
%TD.AperFunction*%
%TD*%
M02*
