%TF.GenerationSoftware,KiCad,Pcbnew,10.0.2*%
%TF.CreationDate,2026-06-12T13:24:58-03:00*%
%TF.ProjectId,water-quality-analyzer-pcb,77617465-722d-4717-9561-6c6974792d61,v1.0.0*%
%TF.SameCoordinates,Original*%
%TF.FileFunction,Copper,L1,Top*%
%TF.FilePolarity,Positive*%
%FSLAX46Y46*%
G04 Gerber Fmt 4.6, Leading zero omitted, Abs format (unit mm)*
G04 Created by KiCad (PCBNEW 10.0.2) date 2026-06-12 13:24:58*
%MOMM*%
%LPD*%
G01*
G04 APERTURE LIST*
G04 Aperture macros list*
%AMRoundRect*
0 Rectangle with rounded corners*
0 $1 Rounding radius*
0 $2 $3 $4 $5 $6 $7 $8 $9 X,Y pos of 4 corners*
0 Add a 4 corners polygon primitive as box body*
4,1,4,$2,$3,$4,$5,$6,$7,$8,$9,$2,$3,0*
0 Add four circle primitives for the rounded corners*
1,1,$1+$1,$2,$3*
1,1,$1+$1,$4,$5*
1,1,$1+$1,$6,$7*
1,1,$1+$1,$8,$9*
0 Add four rect primitives between the rounded corners*
20,1,$1+$1,$2,$3,$4,$5,0*
20,1,$1+$1,$4,$5,$6,$7,0*
20,1,$1+$1,$6,$7,$8,$9,0*
20,1,$1+$1,$8,$9,$2,$3,0*%
G04 Aperture macros list end*
%TA.AperFunction,SMDPad,CuDef*%
%ADD10RoundRect,0.147500X-0.147500X0.457500X-0.147500X-0.457500X0.147500X-0.457500X0.147500X0.457500X0*%
%TD*%
%TA.AperFunction,SMDPad,CuDef*%
%ADD11RoundRect,0.250000X-0.450000X0.262500X-0.450000X-0.262500X0.450000X-0.262500X0.450000X0.262500X0*%
%TD*%
%TA.AperFunction,ComponentPad*%
%ADD12R,1.700000X1.700000*%
%TD*%
%TA.AperFunction,ComponentPad*%
%ADD13C,1.700000*%
%TD*%
%TA.AperFunction,SMDPad,CuDef*%
%ADD14RoundRect,0.250000X0.375000X1.075000X-0.375000X1.075000X-0.375000X-1.075000X0.375000X-1.075000X0*%
%TD*%
%TA.AperFunction,ComponentPad*%
%ADD15C,3.800000*%
%TD*%
%TA.AperFunction,SMDPad,CuDef*%
%ADD16RoundRect,0.250000X0.262500X0.450000X-0.262500X0.450000X-0.262500X-0.450000X0.262500X-0.450000X0*%
%TD*%
%TA.AperFunction,SMDPad,CuDef*%
%ADD17R,0.660000X0.310000*%
%TD*%
%TA.AperFunction,SMDPad,CuDef*%
%ADD18RoundRect,0.250000X-0.475000X0.250000X-0.475000X-0.250000X0.475000X-0.250000X0.475000X0.250000X0*%
%TD*%
%TA.AperFunction,SMDPad,CuDef*%
%ADD19RoundRect,0.250000X-0.325000X-0.650000X0.325000X-0.650000X0.325000X0.650000X-0.325000X0.650000X0*%
%TD*%
%TA.AperFunction,SMDPad,CuDef*%
%ADD20R,3.000000X1.500000*%
%TD*%
%TA.AperFunction,SMDPad,CuDef*%
%ADD21R,3.400000X1.500000*%
%TD*%
%TA.AperFunction,ComponentPad*%
%ADD22O,3.500000X2.200000*%
%TD*%
%TA.AperFunction,ComponentPad*%
%ADD23R,2.500000X1.500000*%
%TD*%
%TA.AperFunction,ComponentPad*%
%ADD24O,2.500000X1.500000*%
%TD*%
%TA.AperFunction,SMDPad,CuDef*%
%ADD25RoundRect,0.243750X0.243750X0.456250X-0.243750X0.456250X-0.243750X-0.456250X0.243750X-0.456250X0*%
%TD*%
%TA.AperFunction,ComponentPad*%
%ADD26RoundRect,0.250000X-0.625000X0.350000X-0.625000X-0.350000X0.625000X-0.350000X0.625000X0.350000X0*%
%TD*%
%TA.AperFunction,ComponentPad*%
%ADD27O,1.750000X1.200000*%
%TD*%
%TA.AperFunction,SMDPad,CuDef*%
%ADD28RoundRect,0.150000X0.150000X-0.512500X0.150000X0.512500X-0.150000X0.512500X-0.150000X-0.512500X0*%
%TD*%
%TA.AperFunction,SMDPad,CuDef*%
%ADD29RoundRect,0.250000X-0.262500X-0.450000X0.262500X-0.450000X0.262500X0.450000X-0.262500X0.450000X0*%
%TD*%
%TA.AperFunction,SMDPad,CuDef*%
%ADD30RoundRect,0.250000X0.450000X-0.262500X0.450000X0.262500X-0.450000X0.262500X-0.450000X-0.262500X0*%
%TD*%
%TA.AperFunction,SMDPad,CuDef*%
%ADD31RoundRect,0.150000X0.587500X0.150000X-0.587500X0.150000X-0.587500X-0.150000X0.587500X-0.150000X0*%
%TD*%
%TA.AperFunction,ViaPad*%
%ADD32C,0.600000*%
%TD*%
%TA.AperFunction,Conductor*%
%ADD33C,0.500000*%
%TD*%
%TA.AperFunction,Conductor*%
%ADD34C,0.250000*%
%TD*%
G04 APERTURE END LIST*
D10*
%TO.P,Q1,1*%
%TO.N,/GND*%
X59450000Y-96245000D03*
%TO.P,Q1,2*%
%TO.N,unconnected-(Q1-Pad2)_1*%
X58500000Y-96245000D03*
%TO.P,Q1,3*%
%TO.N,Net-(BT1--)*%
X57550000Y-96245000D03*
%TO.P,Q1,6*%
%TO.N,Net-(U1-OC)*%
X59450000Y-98755000D03*
%TO.P,Q1,5*%
%TO.N,unconnected-(Q1-Pad2)*%
X58500000Y-98755000D03*
%TO.P,Q1,4*%
%TO.N,Net-(U1-OD)*%
X57550000Y-98755000D03*
%TD*%
D11*
%TO.P,R1,1*%
%TO.N,Net-(BT1-+)*%
X61550000Y-84087500D03*
%TO.P,R1,2*%
%TO.N,Net-(U1-VCC)*%
X61550000Y-85912500D03*
%TD*%
D12*
%TO.P,J4,1,Pin_1_1*%
%TO.N,/TDS_SIGNAL*%
X102000000Y-84920000D03*
D13*
%TO.P,J4,2,Pin_2_2*%
%TO.N,/5V*%
X102000000Y-87460000D03*
%TO.P,J4,3,Pin_3_3*%
%TO.N,/GND*%
X102000000Y-90000000D03*
%TD*%
D14*
%TO.P,L1,1,1_1*%
%TO.N,Net-(U2-SW)*%
X58900000Y-111500000D03*
%TO.P,L1,2,2_2*%
%TO.N,Net-(SW1-A)*%
X56100000Y-111500000D03*
%TD*%
D15*
%TO.P,REF\u002A\u002A,1*%
%TO.N,N/C*%
X109500000Y-118000000D03*
%TD*%
D16*
%TO.P,R6,1*%
%TO.N,Net-(U2-VOUT)*%
X56412500Y-104500000D03*
%TO.P,R6,2*%
%TO.N,Net-(U2-FB)*%
X54587500Y-104500000D03*
%TD*%
D12*
%TO.P,J2,1,Pin_1_1*%
%TO.N,unconnected-(J2-Pin_1-Pad1)*%
X92000000Y-118200000D03*
D13*
%TO.P,J2,2,Pin_2_2*%
%TO.N,unconnected-(J2-Pin_2-Pad2)*%
X92000000Y-115660000D03*
%TO.P,J2,3,Pin_3_3*%
%TO.N,unconnected-(J2-Pin_3-Pad3)*%
X92000000Y-113120000D03*
%TO.P,J2,4,Pin_4_4*%
%TO.N,/PH_SIGNAL*%
X92000000Y-110580000D03*
%TO.P,J2,5,Pin_5_5*%
%TO.N,/TDS_SIGNAL*%
X92000000Y-108040000D03*
%TO.P,J2,6,Pin_6_6*%
%TO.N,/TURBIDITY_SIGNAL*%
X92000000Y-105500000D03*
%TO.P,J2,7,Pin_7_7*%
%TO.N,unconnected-(J2-Pin_7-Pad7)*%
X92000000Y-102960000D03*
%TO.P,J2,8,Pin_8_8*%
%TO.N,unconnected-(J2-Pin_8-Pad8)*%
X92000000Y-100420000D03*
%TO.P,J2,9,Pin_9_9*%
%TO.N,unconnected-(J2-Pin_9-Pad9)*%
X92000000Y-97880000D03*
%TO.P,J2,10,Pin_10_10*%
%TO.N,unconnected-(J2-Pin_10-Pad10)*%
X92000000Y-95340000D03*
%TO.P,J2,11,Pin_11_11*%
%TO.N,unconnected-(J2-Pin_11-Pad11)*%
X92000000Y-92800000D03*
%TO.P,J2,12,Pin_12_12*%
%TO.N,unconnected-(J2-Pin_12-Pad12)*%
X92000000Y-90260000D03*
%TO.P,J2,13,Pin_13_13*%
%TO.N,unconnected-(J2-Pin_13-Pad13)*%
X92000000Y-87720000D03*
%TO.P,J2,14,Pin_14_14*%
%TO.N,/GND*%
X92000000Y-85180000D03*
%TO.P,J2,15,Pin_15_15*%
%TO.N,unconnected-(J2-Pin_15-Pad15)*%
X92000000Y-82640000D03*
%TO.P,J2,16,Pin_16_16*%
%TO.N,unconnected-(J2-Pin_16-Pad16)*%
X92000000Y-80100000D03*
%TO.P,J2,17,Pin_17_17*%
%TO.N,unconnected-(J2-Pin_17-Pad17)*%
X92000000Y-77560000D03*
%TO.P,J2,18,Pin_18_18*%
%TO.N,unconnected-(J2-Pin_18-Pad18)*%
X92000000Y-75020000D03*
%TO.P,J2,19,Pin_19_19*%
%TO.N,/5V*%
X92000000Y-72480000D03*
%TD*%
D17*
%TO.P,U2,1,FB_1*%
%TO.N,Net-(U2-FB)*%
X56530000Y-107500000D03*
%TO.P,U2,2,EN_2*%
%TO.N,Net-(SW1-A)*%
X56530000Y-108000000D03*
%TO.P,U2,3,VIN_3*%
X56530000Y-108500000D03*
%TO.P,U2,4,GND_4*%
%TO.N,/GND*%
X58000000Y-108500000D03*
%TO.P,U2,5,SW_5*%
%TO.N,Net-(U2-SW)*%
X58000000Y-108000000D03*
%TO.P,U2,6,VOUT_6*%
%TO.N,Net-(U2-VOUT)*%
X58000000Y-107500000D03*
%TD*%
D18*
%TO.P,C2,1*%
%TO.N,Net-(SW1-A)*%
X53500000Y-110550000D03*
%TO.P,C2,2*%
%TO.N,/GND*%
X53500000Y-112450000D03*
%TD*%
D19*
%TO.P,C3,1*%
%TO.N,Net-(U2-VOUT)*%
X59025000Y-101500000D03*
%TO.P,C3,2*%
%TO.N,/GND*%
X61975000Y-101500000D03*
%TD*%
D12*
%TO.P,J5,1,Pin_1_1*%
%TO.N,/GND*%
X102000000Y-73460000D03*
D13*
%TO.P,J5,2,Pin_2_2*%
%TO.N,/TURBIDITY_SIGNAL*%
X102000000Y-76000000D03*
%TO.P,J5,3,Pin_3_3*%
%TO.N,/5V*%
X102000000Y-78540000D03*
%TD*%
D20*
%TO.P,J3,1,Pin_1_1*%
%TO.N,/GND*%
X101980000Y-110040000D03*
%TO.P,J3,2,Pin_2_2*%
%TO.N,/5V*%
X101980000Y-108040000D03*
%TO.P,J3,3,Pin_3_3*%
%TO.N,unconnected-(J3-Pin_3-Pad3)*%
X101980000Y-106040000D03*
%TO.P,J3,4,Pin_4_4*%
%TO.N,Net-(J3-Pin_4)*%
X101980000Y-104040000D03*
D21*
%TO.P,J3,5*%
%TO.N,N/C*%
X109680000Y-101840000D03*
%TO.P,J3,6*%
X109680000Y-112240000D03*
%TD*%
D22*
%TO.P,SW1,*%
%TO.N,*%
X52550000Y-86400000D03*
X52550000Y-94600000D03*
D23*
%TO.P,SW1,1,C_1*%
%TO.N,unconnected-(SW1-C-Pad1)*%
X52550000Y-88500000D03*
D24*
%TO.P,SW1,2,B_2*%
%TO.N,Net-(Q2-D)*%
X52550000Y-90500000D03*
%TO.P,SW1,3,A_3*%
%TO.N,Net-(SW1-A)*%
X52550000Y-92500000D03*
%TD*%
D15*
%TO.P,REF\u002A\u002A,1*%
%TO.N,N/C*%
X52500000Y-118000000D03*
%TD*%
D25*
%TO.P,D1,1,K_1*%
%TO.N,/GND*%
X53487500Y-99000000D03*
%TO.P,D1,2,A_2*%
%TO.N,/5V*%
X51612500Y-99000000D03*
%TD*%
D26*
%TO.P,BT1,1,+_1*%
%TO.N,Net-(BT1-+)*%
X56500000Y-79000000D03*
D27*
%TO.P,BT1,2,-_2*%
%TO.N,Net-(BT1--)*%
X56500000Y-81000000D03*
%TD*%
D28*
%TO.P,U1,1,OD_1*%
%TO.N,Net-(U1-OD)*%
X61650000Y-90275000D03*
%TO.P,U1,2,CS_2*%
%TO.N,Net-(U1-CS)*%
X62600000Y-90275000D03*
%TO.P,U1,3,OC_3*%
%TO.N,Net-(U1-OC)*%
X63550000Y-90275000D03*
%TO.P,U1,4,TD_4*%
%TO.N,unconnected-(U1-TD-Pad4)*%
X63550000Y-88000000D03*
%TO.P,U1,5,VCC_5*%
%TO.N,Net-(U1-VCC)*%
X62600000Y-88000000D03*
%TO.P,U1,6,GND_6*%
%TO.N,Net-(BT1--)*%
X61650000Y-88000000D03*
%TD*%
D15*
%TO.P,REF\u002A\u002A,1*%
%TO.N,N/C*%
X52500000Y-73000000D03*
%TD*%
D29*
%TO.P,R4,1*%
%TO.N,Net-(J3-Pin_4)*%
X100997500Y-98540000D03*
%TO.P,R4,2*%
%TO.N,/PH_SIGNAL*%
X102822500Y-98540000D03*
%TD*%
D30*
%TO.P,R3,1*%
%TO.N,/GND*%
X64050000Y-85912500D03*
%TO.P,R3,2*%
%TO.N,Net-(BT1-+)*%
X64050000Y-84087500D03*
%TD*%
D16*
%TO.P,R7,1*%
%TO.N,Net-(U2-FB)*%
X54000000Y-107000000D03*
%TO.P,R7,2*%
%TO.N,/GND*%
X52175000Y-107000000D03*
%TD*%
D12*
%TO.P,J1,1,Pin_1_1*%
%TO.N,unconnected-(J1-Pin_1-Pad1)*%
X68295000Y-118200000D03*
D13*
%TO.P,J1,2,Pin_2_2*%
%TO.N,unconnected-(J1-Pin_2-Pad2)*%
X68295000Y-115660000D03*
%TO.P,J1,3,Pin_3_3*%
%TO.N,unconnected-(J1-Pin_3-Pad3)*%
X68295000Y-113120000D03*
%TO.P,J1,4,Pin_4_4*%
%TO.N,unconnected-(J1-Pin_4-Pad4)*%
X68295000Y-110580000D03*
%TO.P,J1,5,Pin_5_5*%
%TO.N,unconnected-(J1-Pin_5-Pad5)*%
X68295000Y-108040000D03*
%TO.P,J1,6,Pin_6_6*%
%TO.N,unconnected-(J1-Pin_6-Pad6)*%
X68295000Y-105500000D03*
%TO.P,J1,7,Pin_7_7*%
%TO.N,unconnected-(J1-Pin_7-Pad7)*%
X68295000Y-102960000D03*
%TO.P,J1,8,Pin_8_8*%
%TO.N,unconnected-(J1-Pin_8-Pad8)*%
X68295000Y-100420000D03*
%TO.P,J1,9,Pin_9_9*%
%TO.N,unconnected-(J1-Pin_9-Pad9)*%
X68295000Y-97880000D03*
%TO.P,J1,10,Pin_10_10*%
%TO.N,unconnected-(J1-Pin_10-Pad10)*%
X68295000Y-95340000D03*
%TO.P,J1,11,Pin_11_11*%
%TO.N,unconnected-(J1-Pin_11-Pad11)*%
X68295000Y-92800000D03*
%TO.P,J1,12,Pin_12_12*%
%TO.N,unconnected-(J1-Pin_12-Pad12)*%
X68295000Y-90260000D03*
%TO.P,J1,13,Pin_13_13*%
%TO.N,/GND*%
X68295000Y-87720000D03*
%TO.P,J1,14,Pin_14_14*%
%TO.N,unconnected-(J1-Pin_14-Pad14)*%
X68295000Y-85180000D03*
%TO.P,J1,15,Pin_15_15*%
%TO.N,unconnected-(J1-Pin_15-Pad15)*%
X68295000Y-82640000D03*
%TO.P,J1,16,Pin_16_16*%
%TO.N,unconnected-(J1-Pin_16-Pad16)*%
X68295000Y-80100000D03*
%TO.P,J1,17,Pin_17_17*%
%TO.N,unconnected-(J1-Pin_17-Pad17)*%
X68295000Y-77560000D03*
%TO.P,J1,18,Pin_18_18*%
%TO.N,unconnected-(J1-Pin_18-Pad18)*%
X68295000Y-75020000D03*
%TO.P,J1,19,Pin_19_19*%
%TO.N,unconnected-(J1-Pin_19-Pad19)*%
X68295000Y-72480000D03*
%TD*%
D18*
%TO.P,C1,1*%
%TO.N,Net-(U1-VCC)*%
X58550000Y-92462500D03*
%TO.P,C1,2*%
%TO.N,Net-(BT1--)*%
X58550000Y-94362500D03*
%TD*%
D19*
%TO.P,C4,1*%
%TO.N,Net-(U2-VOUT)*%
X59025000Y-104850000D03*
%TO.P,C4,2*%
%TO.N,/GND*%
X61975000Y-104850000D03*
%TD*%
D29*
%TO.P,R5,1*%
%TO.N,/PH_SIGNAL*%
X100997500Y-95540000D03*
%TO.P,R5,2*%
%TO.N,/GND*%
X102822500Y-95540000D03*
%TD*%
D15*
%TO.P,REF\u002A\u002A,1*%
%TO.N,N/C*%
X109500000Y-73000000D03*
%TD*%
D16*
%TO.P,R8,1*%
%TO.N,Net-(U2-VOUT)*%
X56412500Y-102000000D03*
%TO.P,R8,2*%
%TO.N,/5V*%
X54587500Y-102000000D03*
%TD*%
D11*
%TO.P,R2,1*%
%TO.N,Net-(U1-CS)*%
X62550000Y-92587500D03*
%TO.P,R2,2*%
%TO.N,/GND*%
X62550000Y-94412500D03*
%TD*%
D31*
%TO.P,Q2,1,G_1*%
%TO.N,/GND*%
X58437500Y-90362500D03*
%TO.P,Q2,2,S_2*%
%TO.N,Net-(BT1-+)*%
X58437500Y-88462500D03*
%TO.P,Q2,3,D_3*%
%TO.N,Net-(Q2-D)*%
X56562500Y-89412500D03*
%TD*%
D32*
%TO.N,/GND*%
X60425000Y-93500000D03*
X62000000Y-95862500D03*
X59500000Y-108500000D03*
X53500000Y-100500000D03*
X99500000Y-109500000D03*
X94500000Y-86000000D03*
X63500000Y-101500000D03*
X52500000Y-105500000D03*
X99500000Y-74500000D03*
X52000000Y-112000000D03*
X65500000Y-85500000D03*
%TD*%
%TO.N,/GND*%
D33*
X60425000Y-95270000D02*
X59450000Y-96245000D01*
X60425000Y-93500000D02*
X60425000Y-95270000D01*
X62550000Y-95312500D02*
X62000000Y-95862500D01*
X62550000Y-94412500D02*
X62550000Y-95312500D01*
%TO.N,Net-(BT1--)*%
D34*
X57550000Y-95362500D02*
X58550000Y-94362500D01*
X57550000Y-96245000D02*
X57550000Y-95362500D01*
%TO.N,Net-(U1-OC)*%
X61767500Y-96437500D02*
X63430000Y-96437500D01*
X59450000Y-98755000D02*
X61767500Y-96437500D01*
%TO.N,Net-(U1-OD)*%
X60000000Y-97500000D02*
X61000000Y-96500000D01*
X58200001Y-97500000D02*
X60000000Y-97500000D01*
X57550000Y-98150001D02*
X58200001Y-97500000D01*
X57550000Y-98755000D02*
X57550000Y-98150001D01*
%TO.N,Net-(BT1-+)*%
D33*
X58500000Y-80000000D02*
X58500000Y-83500000D01*
X56500000Y-79000000D02*
X57500000Y-79000000D01*
X61550000Y-84087500D02*
X64050000Y-84087500D01*
X58500000Y-83500000D02*
X59087500Y-84087500D01*
X55175000Y-85664949D02*
X55175000Y-80325000D01*
X57500000Y-79000000D02*
X58500000Y-80000000D01*
X55175000Y-80325000D02*
X56500000Y-79000000D01*
X57972551Y-88462500D02*
X58437500Y-88462500D01*
X55175000Y-85664949D02*
X57972551Y-88462500D01*
X59087500Y-84087500D02*
X61550000Y-84087500D01*
%TO.N,Net-(U1-VCC)*%
D34*
X62600000Y-88688408D02*
X62000908Y-89287500D01*
X60037500Y-92462500D02*
X58550000Y-92462500D01*
X62600000Y-86962500D02*
X62600000Y-88000000D01*
X62600000Y-88000000D02*
X62600000Y-88688408D01*
X62000908Y-89287500D02*
X61212500Y-89287500D01*
X61550000Y-85912500D02*
X62600000Y-86962500D01*
X61212500Y-89287500D02*
X60500000Y-90000000D01*
X60500000Y-92000000D02*
X60037500Y-92462500D01*
X60500000Y-90000000D02*
X60500000Y-92000000D01*
%TO.N,/TDS_SIGNAL*%
X98000000Y-88920000D02*
X98000000Y-106500000D01*
X96460000Y-108040000D02*
X92000000Y-108040000D01*
X102000000Y-84920000D02*
X98000000Y-88920000D01*
X98000000Y-106500000D02*
X96460000Y-108040000D01*
%TO.N,/5V*%
D33*
X105500000Y-77500000D02*
X104500000Y-78500000D01*
X104000000Y-71000000D02*
X105500000Y-72500000D01*
X105500000Y-106520000D02*
X105500000Y-83960000D01*
X93480000Y-71000000D02*
X104000000Y-71000000D01*
X90270000Y-70750000D02*
X92000000Y-72480000D01*
X102040000Y-78500000D02*
X102000000Y-78540000D01*
X102000000Y-87460000D02*
X105500000Y-83960000D01*
X105500000Y-72500000D02*
X105500000Y-77500000D01*
X65000000Y-100000000D02*
X66500000Y-98500000D01*
X105500000Y-83960000D02*
X105500000Y-77500000D01*
X51612500Y-99000000D02*
X51612500Y-101112500D01*
X52500000Y-102000000D02*
X54587500Y-102000000D01*
X67250000Y-70750000D02*
X90270000Y-70750000D01*
X103980000Y-108040000D02*
X105500000Y-106520000D01*
X51612500Y-101112500D02*
X52500000Y-102000000D01*
X66500000Y-71500000D02*
X67250000Y-70750000D01*
X101980000Y-108040000D02*
X103980000Y-108040000D01*
X92000000Y-72480000D02*
X93480000Y-71000000D01*
X66500000Y-98500000D02*
X66500000Y-71500000D01*
X54587500Y-102000000D02*
X56587500Y-100000000D01*
X56587500Y-100000000D02*
X65000000Y-100000000D01*
X104500000Y-78500000D02*
X102040000Y-78500000D01*
%TO.N,/GND*%
X52450000Y-112450000D02*
X52000000Y-112000000D01*
X52175000Y-107000000D02*
X52175000Y-105825000D01*
X54750000Y-92812500D02*
X57200000Y-90362500D01*
X57200000Y-90362500D02*
X58437500Y-90362500D01*
X93680000Y-85180000D02*
X94500000Y-86000000D01*
X53487500Y-100487500D02*
X53500000Y-100500000D01*
X102822500Y-90822500D02*
X102000000Y-90000000D01*
X102000000Y-73460000D02*
X100540000Y-73460000D01*
X53487500Y-99000000D02*
X54750000Y-97737500D01*
X100040000Y-110040000D02*
X99500000Y-109500000D01*
X100540000Y-73460000D02*
X99500000Y-74500000D01*
X54750000Y-97737500D02*
X54750000Y-92812500D01*
X92000000Y-85180000D02*
X93680000Y-85180000D01*
X65087500Y-85912500D02*
X65500000Y-85500000D01*
X53500000Y-112450000D02*
X52450000Y-112450000D01*
X61975000Y-101500000D02*
X61975000Y-104850000D01*
X64050000Y-85912500D02*
X65087500Y-85912500D01*
X52175000Y-105825000D02*
X52500000Y-105500000D01*
X102822500Y-95540000D02*
X102822500Y-90822500D01*
X53487500Y-99000000D02*
X53487500Y-100487500D01*
X61975000Y-101500000D02*
X63500000Y-101500000D01*
X101980000Y-110040000D02*
X100040000Y-110040000D01*
D34*
X58000000Y-108500000D02*
X59500000Y-108500000D01*
%TO.N,Net-(U2-SW)*%
X58500000Y-108000000D02*
X59000000Y-107500000D01*
X60500000Y-109900000D02*
X58900000Y-111500000D01*
X60000000Y-107500000D02*
X60500000Y-108000000D01*
X58000000Y-108000000D02*
X58500000Y-108000000D01*
X59000000Y-107500000D02*
X60000000Y-107500000D01*
X60500000Y-108000000D02*
X60500000Y-109900000D01*
%TO.N,Net-(SW1-A)*%
D33*
X50350000Y-93950000D02*
X50350000Y-109350000D01*
D34*
X56530000Y-111070000D02*
X56100000Y-111500000D01*
D33*
X51550000Y-110550000D02*
X53500000Y-110550000D01*
X52550000Y-92500000D02*
X51800000Y-92500000D01*
X55150000Y-110550000D02*
X56100000Y-111500000D01*
X50350000Y-109350000D02*
X51550000Y-110550000D01*
X53500000Y-110550000D02*
X55150000Y-110550000D01*
D34*
X56530000Y-108000000D02*
X56530000Y-108500000D01*
D33*
X51800000Y-92500000D02*
X50350000Y-93950000D01*
D34*
X56530000Y-108500000D02*
X56530000Y-111070000D01*
%TO.N,Net-(U2-VOUT)*%
X57500000Y-104500000D02*
X56412500Y-104500000D01*
X58000000Y-105875000D02*
X58000000Y-105000000D01*
X58000000Y-102525000D02*
X58000000Y-103000000D01*
X58000000Y-103000000D02*
X58000000Y-105000000D01*
X58000000Y-105875000D02*
X59025000Y-104850000D01*
X57000000Y-102000000D02*
X58000000Y-103000000D01*
X56412500Y-102000000D02*
X57000000Y-102000000D01*
X58000000Y-107500000D02*
X58000000Y-105875000D01*
X59025000Y-101500000D02*
X58000000Y-102525000D01*
X58000000Y-105000000D02*
X57500000Y-104500000D01*
%TO.N,Net-(U2-FB)*%
X54000000Y-107000000D02*
X56030000Y-107000000D01*
X56030000Y-107000000D02*
X56530000Y-107500000D01*
X54587500Y-106412500D02*
X54000000Y-107000000D01*
X54587500Y-104500000D02*
X54587500Y-106412500D01*
%TO.N,/PH_SIGNAL*%
X100997500Y-95540000D02*
X99500000Y-97037500D01*
X100997500Y-96715000D02*
X102822500Y-98540000D01*
X97420000Y-110580000D02*
X92000000Y-110580000D01*
X100997500Y-95540000D02*
X100997500Y-96715000D01*
X99500000Y-108500000D02*
X97420000Y-110580000D01*
X99500000Y-97037500D02*
X99500000Y-108500000D01*
%TO.N,/TURBIDITY_SIGNAL*%
X96500000Y-78500000D02*
X99000000Y-76000000D01*
X92000000Y-105500000D02*
X96500000Y-101000000D01*
X96500000Y-101000000D02*
X96500000Y-78500000D01*
X99000000Y-76000000D02*
X102000000Y-76000000D01*
%TO.N,Net-(J3-Pin_4)*%
X100997500Y-103057500D02*
X101980000Y-104040000D01*
X100997500Y-98540000D02*
X100997500Y-103057500D01*
%TO.N,Net-(Q2-D)*%
D33*
X56562500Y-89412500D02*
X55475000Y-90500000D01*
X55475000Y-90500000D02*
X52550000Y-90500000D01*
%TO.N,Net-(BT1--)*%
D34*
X60050000Y-89600000D02*
X61650000Y-88000000D01*
X58550000Y-94362500D02*
X57500000Y-93312500D01*
X59200908Y-91500000D02*
X60050000Y-90650908D01*
X57500000Y-91967400D02*
X57967400Y-91500000D01*
D33*
X57500000Y-87000000D02*
X60650000Y-87000000D01*
D34*
X57967400Y-91500000D02*
X59200908Y-91500000D01*
X60050000Y-90650908D02*
X60050000Y-89600000D01*
D33*
X56500000Y-81000000D02*
X56500000Y-86000000D01*
X56500000Y-86000000D02*
X57500000Y-87000000D01*
X60650000Y-87000000D02*
X61650000Y-88000000D01*
D34*
X57500000Y-93312500D02*
X57500000Y-91967400D01*
%TO.N,Net-(U1-OD)*%
X61000000Y-90925000D02*
X61650000Y-90275000D01*
X61000000Y-96500000D02*
X61000000Y-90925000D01*
%TO.N,Net-(U1-CS)*%
X62550000Y-90325000D02*
X62600000Y-90275000D01*
X62550000Y-92587500D02*
X62550000Y-90325000D01*
%TO.N,Net-(U1-OC)*%
X63550000Y-90275000D02*
X64000000Y-90725000D01*
X64000000Y-90725000D02*
X64000000Y-95867500D01*
X64000000Y-95867500D02*
X63430000Y-96437500D01*
%TD*%
M02*
