%TF.GenerationSoftware,KiCad,Pcbnew,10.0.2*%
%TF.CreationDate,2026-06-12T13:24:59-03:00*%
%TF.ProjectId,water-quality-analyzer-pcb,77617465-722d-4717-9561-6c6974792d61,v1.0.0*%
%TF.SameCoordinates,Original*%
%TF.FileFunction,Soldermask,Bot*%
%TF.FilePolarity,Negative*%
%FSLAX46Y46*%
G04 Gerber Fmt 4.6, Leading zero omitted, Abs format (unit mm)*
G04 Created by KiCad (PCBNEW 10.0.2) date 2026-06-12 13:24:59*
%MOMM*%
%LPD*%
G01*
G04 APERTURE LIST*
G04 Aperture macros list*
%AMRoundRect*
0 Rectangle with rounded corners*
0 $1 Rounding radius*
0 $2 $3 $4 $5 $6 $7 $8 $9 X,Y pos of 4 corners*
0 Add a 4 corners polygon primitive as box body*
4,1,4,$2,$3,$4,$5,$6,$7,$8,$9,$2,$3,0*
0 Add four circle primitives for the rounded corners*
1,1,$1+$1,$2,$3*
1,1,$1+$1,$4,$5*
1,1,$1+$1,$6,$7*
1,1,$1+$1,$8,$9*
0 Add four rect primitives between the rounded corners*
20,1,$1+$1,$2,$3,$4,$5,0*
20,1,$1+$1,$4,$5,$6,$7,0*
20,1,$1+$1,$6,$7,$8,$9,0*
20,1,$1+$1,$8,$9,$2,$3,0*%
G04 Aperture macros list end*
%ADD10R,1.700000X1.700000*%
%ADD11C,1.700000*%
%ADD12C,3.800000*%
%ADD13O,3.500000X2.200000*%
%ADD14R,2.500000X1.500000*%
%ADD15O,2.500000X1.500000*%
%ADD16RoundRect,0.250000X-0.625000X0.350000X-0.625000X-0.350000X0.625000X-0.350000X0.625000X0.350000X0*%
%ADD17O,1.750000X1.200000*%
G04 APERTURE END LIST*
D10*
%TO.C,J4*%
X102000000Y-84920000D03*
D11*
X102000000Y-87460000D03*
X102000000Y-90000000D03*
%TD*%
D12*
%TO.C,REF\u002A\u002A*%
X109500000Y-118000000D03*
%TD*%
D10*
%TO.C,J2*%
X92000000Y-118200000D03*
D11*
X92000000Y-115660000D03*
X92000000Y-113120000D03*
X92000000Y-110580000D03*
X92000000Y-108040000D03*
X92000000Y-105500000D03*
X92000000Y-102960000D03*
X92000000Y-100420000D03*
X92000000Y-97880000D03*
X92000000Y-95340000D03*
X92000000Y-92800000D03*
X92000000Y-90260000D03*
X92000000Y-87720000D03*
X92000000Y-85180000D03*
X92000000Y-82640000D03*
X92000000Y-80100000D03*
X92000000Y-77560000D03*
X92000000Y-75020000D03*
X92000000Y-72480000D03*
%TD*%
D10*
%TO.C,J5*%
X102000000Y-73460000D03*
D11*
X102000000Y-76000000D03*
X102000000Y-78540000D03*
%TD*%
D13*
%TO.C,SW1*%
X52550000Y-86400000D03*
X52550000Y-94600000D03*
D14*
X52550000Y-88500000D03*
D15*
X52550000Y-90500000D03*
X52550000Y-92500000D03*
%TD*%
D12*
%TO.C,REF\u002A\u002A*%
X52500000Y-118000000D03*
%TD*%
D16*
%TO.C,BT1*%
X56500000Y-79000000D03*
D17*
X56500000Y-81000000D03*
%TD*%
D12*
%TO.C,REF\u002A\u002A*%
X52500000Y-73000000D03*
%TD*%
D10*
%TO.C,J1*%
X68295000Y-118200000D03*
D11*
X68295000Y-115660000D03*
X68295000Y-113120000D03*
X68295000Y-110580000D03*
X68295000Y-108040000D03*
X68295000Y-105500000D03*
X68295000Y-102960000D03*
X68295000Y-100420000D03*
X68295000Y-97880000D03*
X68295000Y-95340000D03*
X68295000Y-92800000D03*
X68295000Y-90260000D03*
X68295000Y-87720000D03*
X68295000Y-85180000D03*
X68295000Y-82640000D03*
X68295000Y-80100000D03*
X68295000Y-77560000D03*
X68295000Y-75020000D03*
X68295000Y-72480000D03*
%TD*%
D12*
%TO.C,REF\u002A\u002A*%
X109500000Y-73000000D03*
%TD*%
M02*
